%TF.GenerationSoftware,KiCad,Pcbnew,9.0.5*%
%TF.CreationDate,2025-11-06T15:34:49+07:00*%
%TF.ProjectId,WirelessMD,57697265-6c65-4737-934d-442e6b696361,rev?*%
%TF.SameCoordinates,Original*%
%TF.FileFunction,Profile,NP*%
%FSLAX46Y46*%
G04 Gerber Fmt 4.6, Leading zero omitted, Abs format (unit mm)*
G04 Created by KiCad (PCBNEW 9.0.5) date 2025-11-06 15:34:49*
%MOMM*%
%LPD*%
G01*
G04 APERTURE LIST*
%TA.AperFunction,Profile*%
%ADD10C,0.100000*%
%TD*%
G04 APERTURE END LIST*
D10*
X138500000Y-99500000D02*
X138500000Y-111000000D01*
X89000000Y-46500000D02*
G75*
G02*
X89500000Y-46000000I500000J0D01*
G01*
X138500000Y-123000000D02*
X138500000Y-131500000D01*
X138500000Y-131500000D02*
G75*
G02*
X138000000Y-132000000I-500000J0D01*
G01*
X138500000Y-63500000D02*
X138500000Y-77000000D01*
X138500000Y-77000000D02*
X138500000Y-88000000D01*
X138500000Y-111000000D02*
X138500000Y-123000000D01*
X134000000Y-132000000D02*
X138000000Y-132000000D01*
X138500000Y-88000000D02*
X138500000Y-99500000D01*
X138000000Y-46000000D02*
G75*
G02*
X138500000Y-46500000I0J-500000D01*
G01*
X89500000Y-132000000D02*
X91000000Y-132000000D01*
X134000000Y-132000000D02*
X121000000Y-132000000D01*
X138500000Y-51000000D02*
X138500000Y-46500000D01*
X89000000Y-131500000D02*
X89000000Y-130500000D01*
X105000000Y-132000000D02*
X121000000Y-132000000D01*
X89000000Y-46500000D02*
X89000000Y-130500000D01*
X89500000Y-132000000D02*
G75*
G02*
X89000000Y-131500000I0J500000D01*
G01*
X91000000Y-132000000D02*
X105000000Y-132000000D01*
X138000000Y-46000000D02*
X89500000Y-46000000D01*
X138500000Y-51000000D02*
X138500000Y-63500000D01*
M02*
