%TF.GenerationSoftware,KiCad,Pcbnew,9.0.5*%
%TF.CreationDate,2025-11-06T15:34:49+07:00*%
%TF.ProjectId,WirelessMD,57697265-6c65-4737-934d-442e6b696361,rev?*%
%TF.SameCoordinates,Original*%
%TF.FileFunction,Legend,Top*%
%TF.FilePolarity,Positive*%
%FSLAX46Y46*%
G04 Gerber Fmt 4.6, Leading zero omitted, Abs format (unit mm)*
G04 Created by KiCad (PCBNEW 9.0.5) date 2025-11-06 15:34:49*
%MOMM*%
%LPD*%
G01*
G04 APERTURE LIST*
%ADD10C,0.150000*%
%ADD11C,0.250000*%
%ADD12C,0.120000*%
%ADD13C,0.100000*%
G04 APERTURE END LIST*
D10*
X109902762Y-46190819D02*
X110236095Y-47190819D01*
X110236095Y-47190819D02*
X110569428Y-46190819D01*
X110902762Y-47190819D02*
X110902762Y-46190819D01*
X111378952Y-47190819D02*
X111378952Y-46190819D01*
X111378952Y-46190819D02*
X111950380Y-47190819D01*
X111950380Y-47190819D02*
X111950380Y-46190819D01*
D11*
X135175714Y-113701904D02*
X135651904Y-113701904D01*
X135080476Y-113987619D02*
X135413809Y-112987619D01*
X135413809Y-112987619D02*
X135747142Y-113987619D01*
X136270952Y-112987619D02*
X136366190Y-112987619D01*
X136366190Y-112987619D02*
X136461428Y-113035238D01*
X136461428Y-113035238D02*
X136509047Y-113082857D01*
X136509047Y-113082857D02*
X136556666Y-113178095D01*
X136556666Y-113178095D02*
X136604285Y-113368571D01*
X136604285Y-113368571D02*
X136604285Y-113606666D01*
X136604285Y-113606666D02*
X136556666Y-113797142D01*
X136556666Y-113797142D02*
X136509047Y-113892380D01*
X136509047Y-113892380D02*
X136461428Y-113940000D01*
X136461428Y-113940000D02*
X136366190Y-113987619D01*
X136366190Y-113987619D02*
X136270952Y-113987619D01*
X136270952Y-113987619D02*
X136175714Y-113940000D01*
X136175714Y-113940000D02*
X136128095Y-113892380D01*
X136128095Y-113892380D02*
X136080476Y-113797142D01*
X136080476Y-113797142D02*
X136032857Y-113606666D01*
X136032857Y-113606666D02*
X136032857Y-113368571D01*
X136032857Y-113368571D02*
X136080476Y-113178095D01*
X136080476Y-113178095D02*
X136128095Y-113082857D01*
X136128095Y-113082857D02*
X136175714Y-113035238D01*
X136175714Y-113035238D02*
X136270952Y-112987619D01*
X90741523Y-97874619D02*
X90265333Y-97874619D01*
X90265333Y-97874619D02*
X90217714Y-98350809D01*
X90217714Y-98350809D02*
X90265333Y-98303190D01*
X90265333Y-98303190D02*
X90360571Y-98255571D01*
X90360571Y-98255571D02*
X90598666Y-98255571D01*
X90598666Y-98255571D02*
X90693904Y-98303190D01*
X90693904Y-98303190D02*
X90741523Y-98350809D01*
X90741523Y-98350809D02*
X90789142Y-98446047D01*
X90789142Y-98446047D02*
X90789142Y-98684142D01*
X90789142Y-98684142D02*
X90741523Y-98779380D01*
X90741523Y-98779380D02*
X90693904Y-98827000D01*
X90693904Y-98827000D02*
X90598666Y-98874619D01*
X90598666Y-98874619D02*
X90360571Y-98874619D01*
X90360571Y-98874619D02*
X90265333Y-98827000D01*
X90265333Y-98827000D02*
X90217714Y-98779380D01*
X91074857Y-97874619D02*
X91408190Y-98874619D01*
X91408190Y-98874619D02*
X91741523Y-97874619D01*
X90320905Y-111447619D02*
X90320905Y-110447619D01*
X90320905Y-110447619D02*
X90559000Y-110447619D01*
X90559000Y-110447619D02*
X90701857Y-110495238D01*
X90701857Y-110495238D02*
X90797095Y-110590476D01*
X90797095Y-110590476D02*
X90844714Y-110685714D01*
X90844714Y-110685714D02*
X90892333Y-110876190D01*
X90892333Y-110876190D02*
X90892333Y-111019047D01*
X90892333Y-111019047D02*
X90844714Y-111209523D01*
X90844714Y-111209523D02*
X90797095Y-111304761D01*
X90797095Y-111304761D02*
X90701857Y-111400000D01*
X90701857Y-111400000D02*
X90559000Y-111447619D01*
X90559000Y-111447619D02*
X90320905Y-111447619D01*
X91844714Y-111447619D02*
X91273286Y-111447619D01*
X91559000Y-111447619D02*
X91559000Y-110447619D01*
X91559000Y-110447619D02*
X91463762Y-110590476D01*
X91463762Y-110590476D02*
X91368524Y-110685714D01*
X91368524Y-110685714D02*
X91273286Y-110733333D01*
D10*
X101044476Y-47190819D02*
X101044476Y-46190819D01*
X101044476Y-46190819D02*
X101377809Y-46905104D01*
X101377809Y-46905104D02*
X101711142Y-46190819D01*
X101711142Y-46190819D02*
X101711142Y-47190819D01*
X102711142Y-47190819D02*
X102139714Y-47190819D01*
X102425428Y-47190819D02*
X102425428Y-46190819D01*
X102425428Y-46190819D02*
X102330190Y-46333676D01*
X102330190Y-46333676D02*
X102234952Y-46428914D01*
X102234952Y-46428914D02*
X102139714Y-46476533D01*
X124666476Y-47190819D02*
X124666476Y-46190819D01*
X124666476Y-46190819D02*
X124999809Y-46905104D01*
X124999809Y-46905104D02*
X125333142Y-46190819D01*
X125333142Y-46190819D02*
X125333142Y-47190819D01*
X125761714Y-46286057D02*
X125809333Y-46238438D01*
X125809333Y-46238438D02*
X125904571Y-46190819D01*
X125904571Y-46190819D02*
X126142666Y-46190819D01*
X126142666Y-46190819D02*
X126237904Y-46238438D01*
X126237904Y-46238438D02*
X126285523Y-46286057D01*
X126285523Y-46286057D02*
X126333142Y-46381295D01*
X126333142Y-46381295D02*
X126333142Y-46476533D01*
X126333142Y-46476533D02*
X126285523Y-46619390D01*
X126285523Y-46619390D02*
X125714095Y-47190819D01*
X125714095Y-47190819D02*
X126333142Y-47190819D01*
D11*
X134707333Y-121480619D02*
X134231143Y-121480619D01*
X134231143Y-121480619D02*
X134231143Y-120480619D01*
X134993048Y-120575857D02*
X135040667Y-120528238D01*
X135040667Y-120528238D02*
X135135905Y-120480619D01*
X135135905Y-120480619D02*
X135374000Y-120480619D01*
X135374000Y-120480619D02*
X135469238Y-120528238D01*
X135469238Y-120528238D02*
X135516857Y-120575857D01*
X135516857Y-120575857D02*
X135564476Y-120671095D01*
X135564476Y-120671095D02*
X135564476Y-120766333D01*
X135564476Y-120766333D02*
X135516857Y-120909190D01*
X135516857Y-120909190D02*
X134945429Y-121480619D01*
X134945429Y-121480619D02*
X135564476Y-121480619D01*
X135151905Y-101287619D02*
X135151905Y-100287619D01*
X135151905Y-100287619D02*
X135390000Y-100287619D01*
X135390000Y-100287619D02*
X135532857Y-100335238D01*
X135532857Y-100335238D02*
X135628095Y-100430476D01*
X135628095Y-100430476D02*
X135675714Y-100525714D01*
X135675714Y-100525714D02*
X135723333Y-100716190D01*
X135723333Y-100716190D02*
X135723333Y-100859047D01*
X135723333Y-100859047D02*
X135675714Y-101049523D01*
X135675714Y-101049523D02*
X135628095Y-101144761D01*
X135628095Y-101144761D02*
X135532857Y-101240000D01*
X135532857Y-101240000D02*
X135390000Y-101287619D01*
X135390000Y-101287619D02*
X135151905Y-101287619D01*
X136294762Y-100716190D02*
X136199524Y-100668571D01*
X136199524Y-100668571D02*
X136151905Y-100620952D01*
X136151905Y-100620952D02*
X136104286Y-100525714D01*
X136104286Y-100525714D02*
X136104286Y-100478095D01*
X136104286Y-100478095D02*
X136151905Y-100382857D01*
X136151905Y-100382857D02*
X136199524Y-100335238D01*
X136199524Y-100335238D02*
X136294762Y-100287619D01*
X136294762Y-100287619D02*
X136485238Y-100287619D01*
X136485238Y-100287619D02*
X136580476Y-100335238D01*
X136580476Y-100335238D02*
X136628095Y-100382857D01*
X136628095Y-100382857D02*
X136675714Y-100478095D01*
X136675714Y-100478095D02*
X136675714Y-100525714D01*
X136675714Y-100525714D02*
X136628095Y-100620952D01*
X136628095Y-100620952D02*
X136580476Y-100668571D01*
X136580476Y-100668571D02*
X136485238Y-100716190D01*
X136485238Y-100716190D02*
X136294762Y-100716190D01*
X136294762Y-100716190D02*
X136199524Y-100763809D01*
X136199524Y-100763809D02*
X136151905Y-100811428D01*
X136151905Y-100811428D02*
X136104286Y-100906666D01*
X136104286Y-100906666D02*
X136104286Y-101097142D01*
X136104286Y-101097142D02*
X136151905Y-101192380D01*
X136151905Y-101192380D02*
X136199524Y-101240000D01*
X136199524Y-101240000D02*
X136294762Y-101287619D01*
X136294762Y-101287619D02*
X136485238Y-101287619D01*
X136485238Y-101287619D02*
X136580476Y-101240000D01*
X136580476Y-101240000D02*
X136628095Y-101192380D01*
X136628095Y-101192380D02*
X136675714Y-101097142D01*
X136675714Y-101097142D02*
X136675714Y-100906666D01*
X136675714Y-100906666D02*
X136628095Y-100811428D01*
X136628095Y-100811428D02*
X136580476Y-100763809D01*
X136580476Y-100763809D02*
X136485238Y-100716190D01*
D10*
X115316095Y-46238438D02*
X115220857Y-46190819D01*
X115220857Y-46190819D02*
X115078000Y-46190819D01*
X115078000Y-46190819D02*
X114935143Y-46238438D01*
X114935143Y-46238438D02*
X114839905Y-46333676D01*
X114839905Y-46333676D02*
X114792286Y-46428914D01*
X114792286Y-46428914D02*
X114744667Y-46619390D01*
X114744667Y-46619390D02*
X114744667Y-46762247D01*
X114744667Y-46762247D02*
X114792286Y-46952723D01*
X114792286Y-46952723D02*
X114839905Y-47047961D01*
X114839905Y-47047961D02*
X114935143Y-47143200D01*
X114935143Y-47143200D02*
X115078000Y-47190819D01*
X115078000Y-47190819D02*
X115173238Y-47190819D01*
X115173238Y-47190819D02*
X115316095Y-47143200D01*
X115316095Y-47143200D02*
X115363714Y-47095580D01*
X115363714Y-47095580D02*
X115363714Y-46762247D01*
X115363714Y-46762247D02*
X115173238Y-46762247D01*
X115792286Y-47190819D02*
X115792286Y-46190819D01*
X115792286Y-46190819D02*
X116363714Y-47190819D01*
X116363714Y-47190819D02*
X116363714Y-46190819D01*
X116839905Y-47190819D02*
X116839905Y-46190819D01*
X116839905Y-46190819D02*
X117078000Y-46190819D01*
X117078000Y-46190819D02*
X117220857Y-46238438D01*
X117220857Y-46238438D02*
X117316095Y-46333676D01*
X117316095Y-46333676D02*
X117363714Y-46428914D01*
X117363714Y-46428914D02*
X117411333Y-46619390D01*
X117411333Y-46619390D02*
X117411333Y-46762247D01*
X117411333Y-46762247D02*
X117363714Y-46952723D01*
X117363714Y-46952723D02*
X117316095Y-47047961D01*
X117316095Y-47047961D02*
X117220857Y-47143200D01*
X117220857Y-47143200D02*
X117078000Y-47190819D01*
X117078000Y-47190819D02*
X116839905Y-47190819D01*
D11*
X90424095Y-115654619D02*
X90995523Y-115654619D01*
X90709809Y-116654619D02*
X90709809Y-115654619D01*
X91233619Y-115654619D02*
X91900285Y-116654619D01*
X91900285Y-115654619D02*
X91233619Y-116654619D01*
X134890000Y-94175619D02*
X134890000Y-93175619D01*
X135366190Y-94175619D02*
X135366190Y-93175619D01*
X135366190Y-93175619D02*
X135937618Y-94175619D01*
X135937618Y-94175619D02*
X135937618Y-93175619D01*
X136318571Y-93175619D02*
X136937618Y-93175619D01*
X136937618Y-93175619D02*
X136604285Y-93556571D01*
X136604285Y-93556571D02*
X136747142Y-93556571D01*
X136747142Y-93556571D02*
X136842380Y-93604190D01*
X136842380Y-93604190D02*
X136889999Y-93651809D01*
X136889999Y-93651809D02*
X136937618Y-93747047D01*
X136937618Y-93747047D02*
X136937618Y-93985142D01*
X136937618Y-93985142D02*
X136889999Y-94080380D01*
X136889999Y-94080380D02*
X136842380Y-94128000D01*
X136842380Y-94128000D02*
X136747142Y-94175619D01*
X136747142Y-94175619D02*
X136461428Y-94175619D01*
X136461428Y-94175619D02*
X136366190Y-94128000D01*
X136366190Y-94128000D02*
X136318571Y-94080380D01*
X89845714Y-88103809D02*
X90179047Y-88103809D01*
X90321904Y-88627619D02*
X89845714Y-88627619D01*
X89845714Y-88627619D02*
X89845714Y-87627619D01*
X89845714Y-87627619D02*
X90321904Y-87627619D01*
X90750476Y-88627619D02*
X90750476Y-87627619D01*
X90750476Y-87627619D02*
X91321904Y-88627619D01*
X91321904Y-88627619D02*
X91321904Y-87627619D01*
X92321904Y-88627619D02*
X91750476Y-88627619D01*
X92036190Y-88627619D02*
X92036190Y-87627619D01*
X92036190Y-87627619D02*
X91940952Y-87770476D01*
X91940952Y-87770476D02*
X91845714Y-87865714D01*
X91845714Y-87865714D02*
X91750476Y-87913333D01*
X135151905Y-106113619D02*
X135151905Y-105113619D01*
X135151905Y-105113619D02*
X135390000Y-105113619D01*
X135390000Y-105113619D02*
X135532857Y-105161238D01*
X135532857Y-105161238D02*
X135628095Y-105256476D01*
X135628095Y-105256476D02*
X135675714Y-105351714D01*
X135675714Y-105351714D02*
X135723333Y-105542190D01*
X135723333Y-105542190D02*
X135723333Y-105685047D01*
X135723333Y-105685047D02*
X135675714Y-105875523D01*
X135675714Y-105875523D02*
X135628095Y-105970761D01*
X135628095Y-105970761D02*
X135532857Y-106066000D01*
X135532857Y-106066000D02*
X135390000Y-106113619D01*
X135390000Y-106113619D02*
X135151905Y-106113619D01*
X136580476Y-105113619D02*
X136390000Y-105113619D01*
X136390000Y-105113619D02*
X136294762Y-105161238D01*
X136294762Y-105161238D02*
X136247143Y-105208857D01*
X136247143Y-105208857D02*
X136151905Y-105351714D01*
X136151905Y-105351714D02*
X136104286Y-105542190D01*
X136104286Y-105542190D02*
X136104286Y-105923142D01*
X136104286Y-105923142D02*
X136151905Y-106018380D01*
X136151905Y-106018380D02*
X136199524Y-106066000D01*
X136199524Y-106066000D02*
X136294762Y-106113619D01*
X136294762Y-106113619D02*
X136485238Y-106113619D01*
X136485238Y-106113619D02*
X136580476Y-106066000D01*
X136580476Y-106066000D02*
X136628095Y-106018380D01*
X136628095Y-106018380D02*
X136675714Y-105923142D01*
X136675714Y-105923142D02*
X136675714Y-105685047D01*
X136675714Y-105685047D02*
X136628095Y-105589809D01*
X136628095Y-105589809D02*
X136580476Y-105542190D01*
X136580476Y-105542190D02*
X136485238Y-105494571D01*
X136485238Y-105494571D02*
X136294762Y-105494571D01*
X136294762Y-105494571D02*
X136199524Y-105542190D01*
X136199524Y-105542190D02*
X136151905Y-105589809D01*
X136151905Y-105589809D02*
X136104286Y-105685047D01*
X135151905Y-103827619D02*
X135151905Y-102827619D01*
X135151905Y-102827619D02*
X135390000Y-102827619D01*
X135390000Y-102827619D02*
X135532857Y-102875238D01*
X135532857Y-102875238D02*
X135628095Y-102970476D01*
X135628095Y-102970476D02*
X135675714Y-103065714D01*
X135675714Y-103065714D02*
X135723333Y-103256190D01*
X135723333Y-103256190D02*
X135723333Y-103399047D01*
X135723333Y-103399047D02*
X135675714Y-103589523D01*
X135675714Y-103589523D02*
X135628095Y-103684761D01*
X135628095Y-103684761D02*
X135532857Y-103780000D01*
X135532857Y-103780000D02*
X135390000Y-103827619D01*
X135390000Y-103827619D02*
X135151905Y-103827619D01*
X136056667Y-102827619D02*
X136723333Y-102827619D01*
X136723333Y-102827619D02*
X136294762Y-103827619D01*
X90320905Y-104081619D02*
X90320905Y-103081619D01*
X90320905Y-103081619D02*
X90559000Y-103081619D01*
X90559000Y-103081619D02*
X90701857Y-103129238D01*
X90701857Y-103129238D02*
X90797095Y-103224476D01*
X90797095Y-103224476D02*
X90844714Y-103319714D01*
X90844714Y-103319714D02*
X90892333Y-103510190D01*
X90892333Y-103510190D02*
X90892333Y-103653047D01*
X90892333Y-103653047D02*
X90844714Y-103843523D01*
X90844714Y-103843523D02*
X90797095Y-103938761D01*
X90797095Y-103938761D02*
X90701857Y-104034000D01*
X90701857Y-104034000D02*
X90559000Y-104081619D01*
X90559000Y-104081619D02*
X90320905Y-104081619D01*
X91749476Y-103414952D02*
X91749476Y-104081619D01*
X91511381Y-103034000D02*
X91273286Y-103748285D01*
X91273286Y-103748285D02*
X91892333Y-103748285D01*
X135596380Y-116654619D02*
X135263047Y-116178428D01*
X135024952Y-116654619D02*
X135024952Y-115654619D01*
X135024952Y-115654619D02*
X135405904Y-115654619D01*
X135405904Y-115654619D02*
X135501142Y-115702238D01*
X135501142Y-115702238D02*
X135548761Y-115749857D01*
X135548761Y-115749857D02*
X135596380Y-115845095D01*
X135596380Y-115845095D02*
X135596380Y-115987952D01*
X135596380Y-115987952D02*
X135548761Y-116083190D01*
X135548761Y-116083190D02*
X135501142Y-116130809D01*
X135501142Y-116130809D02*
X135405904Y-116178428D01*
X135405904Y-116178428D02*
X135024952Y-116178428D01*
X135977333Y-116607000D02*
X136120190Y-116654619D01*
X136120190Y-116654619D02*
X136358285Y-116654619D01*
X136358285Y-116654619D02*
X136453523Y-116607000D01*
X136453523Y-116607000D02*
X136501142Y-116559380D01*
X136501142Y-116559380D02*
X136548761Y-116464142D01*
X136548761Y-116464142D02*
X136548761Y-116368904D01*
X136548761Y-116368904D02*
X136501142Y-116273666D01*
X136501142Y-116273666D02*
X136453523Y-116226047D01*
X136453523Y-116226047D02*
X136358285Y-116178428D01*
X136358285Y-116178428D02*
X136167809Y-116130809D01*
X136167809Y-116130809D02*
X136072571Y-116083190D01*
X136072571Y-116083190D02*
X136024952Y-116035571D01*
X136024952Y-116035571D02*
X135977333Y-115940333D01*
X135977333Y-115940333D02*
X135977333Y-115845095D01*
X135977333Y-115845095D02*
X136024952Y-115749857D01*
X136024952Y-115749857D02*
X136072571Y-115702238D01*
X136072571Y-115702238D02*
X136167809Y-115654619D01*
X136167809Y-115654619D02*
X136405904Y-115654619D01*
X136405904Y-115654619D02*
X136548761Y-115702238D01*
X136834476Y-115654619D02*
X137405904Y-115654619D01*
X137120190Y-116654619D02*
X137120190Y-115654619D01*
X89932000Y-91127619D02*
X89932000Y-90127619D01*
X90408190Y-91127619D02*
X90408190Y-90127619D01*
X90408190Y-90127619D02*
X90979618Y-91127619D01*
X90979618Y-91127619D02*
X90979618Y-90127619D01*
X91408190Y-90222857D02*
X91455809Y-90175238D01*
X91455809Y-90175238D02*
X91551047Y-90127619D01*
X91551047Y-90127619D02*
X91789142Y-90127619D01*
X91789142Y-90127619D02*
X91884380Y-90175238D01*
X91884380Y-90175238D02*
X91931999Y-90222857D01*
X91931999Y-90222857D02*
X91979618Y-90318095D01*
X91979618Y-90318095D02*
X91979618Y-90413333D01*
X91979618Y-90413333D02*
X91931999Y-90556190D01*
X91931999Y-90556190D02*
X91360571Y-91127619D01*
X91360571Y-91127619D02*
X91979618Y-91127619D01*
X91019333Y-121480619D02*
X90543143Y-121480619D01*
X90543143Y-121480619D02*
X90543143Y-120480619D01*
X91876476Y-121480619D02*
X91305048Y-121480619D01*
X91590762Y-121480619D02*
X91590762Y-120480619D01*
X91590762Y-120480619D02*
X91495524Y-120623476D01*
X91495524Y-120623476D02*
X91400286Y-120718714D01*
X91400286Y-120718714D02*
X91305048Y-120766333D01*
X134905905Y-97747619D02*
X135524952Y-97747619D01*
X135524952Y-97747619D02*
X135191619Y-98128571D01*
X135191619Y-98128571D02*
X135334476Y-98128571D01*
X135334476Y-98128571D02*
X135429714Y-98176190D01*
X135429714Y-98176190D02*
X135477333Y-98223809D01*
X135477333Y-98223809D02*
X135524952Y-98319047D01*
X135524952Y-98319047D02*
X135524952Y-98557142D01*
X135524952Y-98557142D02*
X135477333Y-98652380D01*
X135477333Y-98652380D02*
X135429714Y-98700000D01*
X135429714Y-98700000D02*
X135334476Y-98747619D01*
X135334476Y-98747619D02*
X135048762Y-98747619D01*
X135048762Y-98747619D02*
X134953524Y-98700000D01*
X134953524Y-98700000D02*
X134905905Y-98652380D01*
X135810667Y-97747619D02*
X136144000Y-98747619D01*
X136144000Y-98747619D02*
X136477333Y-97747619D01*
X136715429Y-97747619D02*
X137334476Y-97747619D01*
X137334476Y-97747619D02*
X137001143Y-98128571D01*
X137001143Y-98128571D02*
X137144000Y-98128571D01*
X137144000Y-98128571D02*
X137239238Y-98176190D01*
X137239238Y-98176190D02*
X137286857Y-98223809D01*
X137286857Y-98223809D02*
X137334476Y-98319047D01*
X137334476Y-98319047D02*
X137334476Y-98557142D01*
X137334476Y-98557142D02*
X137286857Y-98652380D01*
X137286857Y-98652380D02*
X137239238Y-98700000D01*
X137239238Y-98700000D02*
X137144000Y-98747619D01*
X137144000Y-98747619D02*
X136858286Y-98747619D01*
X136858286Y-98747619D02*
X136763048Y-98700000D01*
X136763048Y-98700000D02*
X136715429Y-98652380D01*
X134890000Y-91381619D02*
X134890000Y-90381619D01*
X135366190Y-91381619D02*
X135366190Y-90381619D01*
X135366190Y-90381619D02*
X135937618Y-91381619D01*
X135937618Y-91381619D02*
X135937618Y-90381619D01*
X136842380Y-90714952D02*
X136842380Y-91381619D01*
X136604285Y-90334000D02*
X136366190Y-91048285D01*
X136366190Y-91048285D02*
X136985237Y-91048285D01*
X89806000Y-93853619D02*
X89806000Y-92853619D01*
X90282190Y-93853619D02*
X90282190Y-92853619D01*
X90282190Y-92853619D02*
X90853618Y-93853619D01*
X90853618Y-93853619D02*
X90853618Y-92853619D01*
X91853618Y-93853619D02*
X91282190Y-93853619D01*
X91567904Y-93853619D02*
X91567904Y-92853619D01*
X91567904Y-92853619D02*
X91472666Y-92996476D01*
X91472666Y-92996476D02*
X91377428Y-93091714D01*
X91377428Y-93091714D02*
X91282190Y-93139333D01*
X90320905Y-108907619D02*
X90320905Y-107907619D01*
X90320905Y-107907619D02*
X90559000Y-107907619D01*
X90559000Y-107907619D02*
X90701857Y-107955238D01*
X90701857Y-107955238D02*
X90797095Y-108050476D01*
X90797095Y-108050476D02*
X90844714Y-108145714D01*
X90844714Y-108145714D02*
X90892333Y-108336190D01*
X90892333Y-108336190D02*
X90892333Y-108479047D01*
X90892333Y-108479047D02*
X90844714Y-108669523D01*
X90844714Y-108669523D02*
X90797095Y-108764761D01*
X90797095Y-108764761D02*
X90701857Y-108860000D01*
X90701857Y-108860000D02*
X90559000Y-108907619D01*
X90559000Y-108907619D02*
X90320905Y-108907619D01*
X91273286Y-108002857D02*
X91320905Y-107955238D01*
X91320905Y-107955238D02*
X91416143Y-107907619D01*
X91416143Y-107907619D02*
X91654238Y-107907619D01*
X91654238Y-107907619D02*
X91749476Y-107955238D01*
X91749476Y-107955238D02*
X91797095Y-108002857D01*
X91797095Y-108002857D02*
X91844714Y-108098095D01*
X91844714Y-108098095D02*
X91844714Y-108193333D01*
X91844714Y-108193333D02*
X91797095Y-108336190D01*
X91797095Y-108336190D02*
X91225667Y-108907619D01*
X91225667Y-108907619D02*
X91844714Y-108907619D01*
X90892333Y-114241619D02*
X90559000Y-113765428D01*
X90320905Y-114241619D02*
X90320905Y-113241619D01*
X90320905Y-113241619D02*
X90701857Y-113241619D01*
X90701857Y-113241619D02*
X90797095Y-113289238D01*
X90797095Y-113289238D02*
X90844714Y-113336857D01*
X90844714Y-113336857D02*
X90892333Y-113432095D01*
X90892333Y-113432095D02*
X90892333Y-113574952D01*
X90892333Y-113574952D02*
X90844714Y-113670190D01*
X90844714Y-113670190D02*
X90797095Y-113717809D01*
X90797095Y-113717809D02*
X90701857Y-113765428D01*
X90701857Y-113765428D02*
X90320905Y-113765428D01*
X91225667Y-113241619D02*
X91892333Y-114241619D01*
X91892333Y-113241619D02*
X91225667Y-114241619D01*
X90043095Y-100335238D02*
X89947857Y-100287619D01*
X89947857Y-100287619D02*
X89805000Y-100287619D01*
X89805000Y-100287619D02*
X89662143Y-100335238D01*
X89662143Y-100335238D02*
X89566905Y-100430476D01*
X89566905Y-100430476D02*
X89519286Y-100525714D01*
X89519286Y-100525714D02*
X89471667Y-100716190D01*
X89471667Y-100716190D02*
X89471667Y-100859047D01*
X89471667Y-100859047D02*
X89519286Y-101049523D01*
X89519286Y-101049523D02*
X89566905Y-101144761D01*
X89566905Y-101144761D02*
X89662143Y-101240000D01*
X89662143Y-101240000D02*
X89805000Y-101287619D01*
X89805000Y-101287619D02*
X89900238Y-101287619D01*
X89900238Y-101287619D02*
X90043095Y-101240000D01*
X90043095Y-101240000D02*
X90090714Y-101192380D01*
X90090714Y-101192380D02*
X90090714Y-100859047D01*
X90090714Y-100859047D02*
X89900238Y-100859047D01*
X90519286Y-101287619D02*
X90519286Y-100287619D01*
X90519286Y-100287619D02*
X91090714Y-101287619D01*
X91090714Y-101287619D02*
X91090714Y-100287619D01*
X91566905Y-101287619D02*
X91566905Y-100287619D01*
X91566905Y-100287619D02*
X91805000Y-100287619D01*
X91805000Y-100287619D02*
X91947857Y-100335238D01*
X91947857Y-100335238D02*
X92043095Y-100430476D01*
X92043095Y-100430476D02*
X92090714Y-100525714D01*
X92090714Y-100525714D02*
X92138333Y-100716190D01*
X92138333Y-100716190D02*
X92138333Y-100859047D01*
X92138333Y-100859047D02*
X92090714Y-101049523D01*
X92090714Y-101049523D02*
X92043095Y-101144761D01*
X92043095Y-101144761D02*
X91947857Y-101240000D01*
X91947857Y-101240000D02*
X91805000Y-101287619D01*
X91805000Y-101287619D02*
X91566905Y-101287619D01*
X135151905Y-111447619D02*
X135151905Y-110447619D01*
X135151905Y-110447619D02*
X135390000Y-110447619D01*
X135390000Y-110447619D02*
X135532857Y-110495238D01*
X135532857Y-110495238D02*
X135628095Y-110590476D01*
X135628095Y-110590476D02*
X135675714Y-110685714D01*
X135675714Y-110685714D02*
X135723333Y-110876190D01*
X135723333Y-110876190D02*
X135723333Y-111019047D01*
X135723333Y-111019047D02*
X135675714Y-111209523D01*
X135675714Y-111209523D02*
X135628095Y-111304761D01*
X135628095Y-111304761D02*
X135532857Y-111400000D01*
X135532857Y-111400000D02*
X135390000Y-111447619D01*
X135390000Y-111447619D02*
X135151905Y-111447619D01*
X136342381Y-110447619D02*
X136437619Y-110447619D01*
X136437619Y-110447619D02*
X136532857Y-110495238D01*
X136532857Y-110495238D02*
X136580476Y-110542857D01*
X136580476Y-110542857D02*
X136628095Y-110638095D01*
X136628095Y-110638095D02*
X136675714Y-110828571D01*
X136675714Y-110828571D02*
X136675714Y-111066666D01*
X136675714Y-111066666D02*
X136628095Y-111257142D01*
X136628095Y-111257142D02*
X136580476Y-111352380D01*
X136580476Y-111352380D02*
X136532857Y-111400000D01*
X136532857Y-111400000D02*
X136437619Y-111447619D01*
X136437619Y-111447619D02*
X136342381Y-111447619D01*
X136342381Y-111447619D02*
X136247143Y-111400000D01*
X136247143Y-111400000D02*
X136199524Y-111352380D01*
X136199524Y-111352380D02*
X136151905Y-111257142D01*
X136151905Y-111257142D02*
X136104286Y-111066666D01*
X136104286Y-111066666D02*
X136104286Y-110828571D01*
X136104286Y-110828571D02*
X136151905Y-110638095D01*
X136151905Y-110638095D02*
X136199524Y-110542857D01*
X136199524Y-110542857D02*
X136247143Y-110495238D01*
X136247143Y-110495238D02*
X136342381Y-110447619D01*
X134929714Y-88317809D02*
X135263047Y-88317809D01*
X135405904Y-88841619D02*
X134929714Y-88841619D01*
X134929714Y-88841619D02*
X134929714Y-87841619D01*
X134929714Y-87841619D02*
X135405904Y-87841619D01*
X135834476Y-88841619D02*
X135834476Y-87841619D01*
X135834476Y-87841619D02*
X136405904Y-88841619D01*
X136405904Y-88841619D02*
X136405904Y-87841619D01*
X136834476Y-87936857D02*
X136882095Y-87889238D01*
X136882095Y-87889238D02*
X136977333Y-87841619D01*
X136977333Y-87841619D02*
X137215428Y-87841619D01*
X137215428Y-87841619D02*
X137310666Y-87889238D01*
X137310666Y-87889238D02*
X137358285Y-87936857D01*
X137358285Y-87936857D02*
X137405904Y-88032095D01*
X137405904Y-88032095D02*
X137405904Y-88127333D01*
X137405904Y-88127333D02*
X137358285Y-88270190D01*
X137358285Y-88270190D02*
X136786857Y-88841619D01*
X136786857Y-88841619D02*
X137405904Y-88841619D01*
X90320905Y-106367619D02*
X90320905Y-105367619D01*
X90320905Y-105367619D02*
X90559000Y-105367619D01*
X90559000Y-105367619D02*
X90701857Y-105415238D01*
X90701857Y-105415238D02*
X90797095Y-105510476D01*
X90797095Y-105510476D02*
X90844714Y-105605714D01*
X90844714Y-105605714D02*
X90892333Y-105796190D01*
X90892333Y-105796190D02*
X90892333Y-105939047D01*
X90892333Y-105939047D02*
X90844714Y-106129523D01*
X90844714Y-106129523D02*
X90797095Y-106224761D01*
X90797095Y-106224761D02*
X90701857Y-106320000D01*
X90701857Y-106320000D02*
X90559000Y-106367619D01*
X90559000Y-106367619D02*
X90320905Y-106367619D01*
X91225667Y-105367619D02*
X91844714Y-105367619D01*
X91844714Y-105367619D02*
X91511381Y-105748571D01*
X91511381Y-105748571D02*
X91654238Y-105748571D01*
X91654238Y-105748571D02*
X91749476Y-105796190D01*
X91749476Y-105796190D02*
X91797095Y-105843809D01*
X91797095Y-105843809D02*
X91844714Y-105939047D01*
X91844714Y-105939047D02*
X91844714Y-106177142D01*
X91844714Y-106177142D02*
X91797095Y-106272380D01*
X91797095Y-106272380D02*
X91749476Y-106320000D01*
X91749476Y-106320000D02*
X91654238Y-106367619D01*
X91654238Y-106367619D02*
X91368524Y-106367619D01*
X91368524Y-106367619D02*
X91273286Y-106320000D01*
X91273286Y-106320000D02*
X91225667Y-106272380D01*
X135151905Y-108907619D02*
X135151905Y-107907619D01*
X135151905Y-107907619D02*
X135390000Y-107907619D01*
X135390000Y-107907619D02*
X135532857Y-107955238D01*
X135532857Y-107955238D02*
X135628095Y-108050476D01*
X135628095Y-108050476D02*
X135675714Y-108145714D01*
X135675714Y-108145714D02*
X135723333Y-108336190D01*
X135723333Y-108336190D02*
X135723333Y-108479047D01*
X135723333Y-108479047D02*
X135675714Y-108669523D01*
X135675714Y-108669523D02*
X135628095Y-108764761D01*
X135628095Y-108764761D02*
X135532857Y-108860000D01*
X135532857Y-108860000D02*
X135390000Y-108907619D01*
X135390000Y-108907619D02*
X135151905Y-108907619D01*
X136628095Y-107907619D02*
X136151905Y-107907619D01*
X136151905Y-107907619D02*
X136104286Y-108383809D01*
X136104286Y-108383809D02*
X136151905Y-108336190D01*
X136151905Y-108336190D02*
X136247143Y-108288571D01*
X136247143Y-108288571D02*
X136485238Y-108288571D01*
X136485238Y-108288571D02*
X136580476Y-108336190D01*
X136580476Y-108336190D02*
X136628095Y-108383809D01*
X136628095Y-108383809D02*
X136675714Y-108479047D01*
X136675714Y-108479047D02*
X136675714Y-108717142D01*
X136675714Y-108717142D02*
X136628095Y-108812380D01*
X136628095Y-108812380D02*
X136580476Y-108860000D01*
X136580476Y-108860000D02*
X136485238Y-108907619D01*
X136485238Y-108907619D02*
X136247143Y-108907619D01*
X136247143Y-108907619D02*
X136151905Y-108860000D01*
X136151905Y-108860000D02*
X136104286Y-108812380D01*
D12*
%TO.C,J11*%
X92650000Y-114793000D02*
X92650000Y-96953000D01*
X95310000Y-96953000D02*
X92650000Y-96953000D01*
X95310000Y-114793000D02*
X92650000Y-114793000D01*
X95310000Y-114793000D02*
X95310000Y-96953000D01*
X95310000Y-116063000D02*
X95310000Y-117393000D01*
X95310000Y-117393000D02*
X93980000Y-117393000D01*
D13*
%TO.C,U6*%
X113058000Y-83893000D02*
X112863000Y-83893000D01*
X113058000Y-90143000D02*
X113058000Y-89693000D01*
X113383000Y-83593000D02*
X113058000Y-83893000D01*
X113533000Y-90143000D02*
X113058000Y-90143000D01*
X113858000Y-83593000D02*
X113383000Y-83593000D01*
X116608000Y-83593000D02*
X116208000Y-83593000D01*
X116608000Y-84093000D02*
X116608000Y-83593000D01*
X116608000Y-89768000D02*
X116608000Y-90143000D01*
X116608000Y-90143000D02*
X116308000Y-90143000D01*
D12*
%TO.C,D8*%
X128188000Y-65260000D02*
X128188000Y-68560000D01*
X128188000Y-65260000D02*
X135088000Y-65260000D01*
X128188000Y-68560000D02*
X135088000Y-68560000D01*
%TO.C,J13*%
X108585000Y-47371000D02*
X108585000Y-54991000D01*
X108585000Y-48641000D02*
X118745000Y-48641000D01*
X108585000Y-54991000D02*
X118745000Y-54991000D01*
X118745000Y-47371000D02*
X108585000Y-47371000D01*
X118745000Y-54991000D02*
X118745000Y-47371000D01*
%TO.C,D4*%
X100078000Y-80401690D02*
X93178000Y-80401690D01*
X100078000Y-83701690D02*
X93178000Y-83701690D01*
X100078000Y-83701690D02*
X100078000Y-80401690D01*
%TO.C,D6*%
X128188000Y-80500000D02*
X128188000Y-83800000D01*
X128188000Y-80500000D02*
X135088000Y-80500000D01*
X128188000Y-83800000D02*
X135088000Y-83800000D01*
%TO.C,U4*%
X100631000Y-89958000D02*
X100631000Y-122288000D01*
X102751000Y-124418000D02*
X124361000Y-124418000D01*
X123951000Y-89958000D02*
X100631000Y-89958000D01*
X123951000Y-96858000D02*
X123951000Y-89958000D01*
X126491000Y-96858000D02*
X123951000Y-96858000D01*
X126491000Y-96858000D02*
X126491000Y-122288000D01*
X102761000Y-124418000D02*
G75*
G02*
X100631000Y-122288000I0J2130000D01*
G01*
X126491000Y-122288000D02*
G75*
G02*
X124361000Y-124418000I-2130002J2D01*
G01*
D10*
X127531000Y-116713000D02*
X126896000Y-116078000D01*
X127531000Y-115443000D01*
X127531000Y-116713000D01*
G36*
X127531000Y-116713000D02*
G01*
X126896000Y-116078000D01*
X127531000Y-115443000D01*
X127531000Y-116713000D01*
G37*
D12*
%TO.C,U2*%
X103995000Y-65609000D02*
X103995000Y-70850000D01*
X103995000Y-65609000D02*
X124435000Y-65609000D01*
X103995000Y-67449000D02*
X124435000Y-67449000D01*
X103995000Y-70850000D02*
X105671000Y-70850000D01*
X105325000Y-70850000D02*
X105325000Y-74259000D01*
X107520000Y-70850000D02*
X108211000Y-70850000D01*
X107865000Y-70850000D02*
X107865000Y-74244000D01*
X110060000Y-70850000D02*
X110751000Y-70850000D01*
X110405000Y-70850000D02*
X110405000Y-74244000D01*
X112366000Y-65609000D02*
X112366000Y-67449000D01*
X112600000Y-70850000D02*
X113291000Y-70850000D01*
X112945000Y-70850000D02*
X112945000Y-74244000D01*
X115140000Y-70850000D02*
X115831000Y-70850000D01*
X115485000Y-70850000D02*
X115485000Y-74244000D01*
X116065000Y-65609000D02*
X116065000Y-67449000D01*
X117680000Y-70850000D02*
X118371000Y-70850000D01*
X118025000Y-70850000D02*
X118025000Y-74244000D01*
X120220000Y-70850000D02*
X120911000Y-70850000D01*
X120565000Y-70850000D02*
X120565000Y-74244000D01*
X122760000Y-70850000D02*
X124435000Y-70850000D01*
X123105000Y-70850000D02*
X123105000Y-74244000D01*
X124435000Y-65609000D02*
X124435000Y-70850000D01*
%TO.C,R12*%
X107708000Y-106845000D02*
X107108000Y-106845000D01*
X107728000Y-105245000D02*
X107128000Y-105245000D01*
%TO.C,D9*%
X128188000Y-70340000D02*
X128188000Y-73640000D01*
X128188000Y-70340000D02*
X135088000Y-70340000D01*
X128188000Y-73640000D02*
X135088000Y-73640000D01*
%TO.C,D3*%
X100078000Y-70323230D02*
X93178000Y-70323230D01*
X100078000Y-73623230D02*
X93178000Y-73623230D01*
X100078000Y-73623230D02*
X100078000Y-70323230D01*
D13*
%TO.C,C7*%
X111539000Y-81834000D02*
X111539000Y-81234000D01*
X114139000Y-80634000D02*
X113639000Y-80634000D01*
X114139000Y-80634000D02*
X114639000Y-80634000D01*
X114139000Y-82434000D02*
X113639000Y-82434000D01*
X114139000Y-82434000D02*
X114639000Y-82434000D01*
X116739000Y-81834000D02*
X116739000Y-81234000D01*
D12*
%TO.C,J8*%
X131766000Y-114808000D02*
X131766000Y-96968000D01*
X134426000Y-96968000D02*
X131766000Y-96968000D01*
X134426000Y-114808000D02*
X131766000Y-114808000D01*
X134426000Y-114808000D02*
X134426000Y-96968000D01*
X134426000Y-116078000D02*
X134426000Y-117408000D01*
X134426000Y-117408000D02*
X133096000Y-117408000D01*
%TO.C,J4*%
X131766000Y-92202000D02*
X131766000Y-87062000D01*
X134426000Y-87062000D02*
X131766000Y-87062000D01*
X134426000Y-92202000D02*
X131766000Y-92202000D01*
X134426000Y-92202000D02*
X134426000Y-87062000D01*
X134426000Y-93472000D02*
X134426000Y-94802000D01*
X134426000Y-94802000D02*
X133096000Y-94802000D01*
%TO.C,D10*%
X132296000Y-121365000D02*
X132296000Y-120765000D01*
X133896000Y-121385000D02*
X133896000Y-120785000D01*
%TO.C,D7*%
X128188000Y-75420000D02*
X128188000Y-78720000D01*
X128188000Y-75420000D02*
X135088000Y-75420000D01*
X128188000Y-78720000D02*
X135088000Y-78720000D01*
%TO.C,J3*%
X92650000Y-92202000D02*
X92650000Y-87062000D01*
X95310000Y-87062000D02*
X92650000Y-87062000D01*
X95310000Y-92202000D02*
X92650000Y-92202000D01*
X95310000Y-92202000D02*
X95310000Y-87062000D01*
X95310000Y-93472000D02*
X95310000Y-94802000D01*
X95310000Y-94802000D02*
X93980000Y-94802000D01*
D13*
%TO.C,C9*%
X104510000Y-87342000D02*
X104510000Y-86842000D01*
X104510000Y-87342000D02*
X104510000Y-87842000D01*
X105110000Y-84742000D02*
X105710000Y-84742000D01*
X105110000Y-89942000D02*
X105710000Y-89942000D01*
X106310000Y-87342000D02*
X106310000Y-86842000D01*
X106310000Y-87342000D02*
X106310000Y-87842000D01*
D12*
%TO.C,C8*%
X114566000Y-79540000D02*
X113966000Y-79540000D01*
X114586000Y-77940000D02*
X113986000Y-77940000D01*
%TO.C,J7*%
X120269000Y-47371000D02*
X120269000Y-54991000D01*
X120269000Y-48641000D02*
X130429000Y-48641000D01*
X120269000Y-54991000D02*
X130429000Y-54991000D01*
X130429000Y-47371000D02*
X120269000Y-47371000D01*
X130429000Y-54991000D02*
X130429000Y-47371000D01*
D13*
%TO.C,F2*%
X106112000Y-98598000D02*
X106112000Y-97998000D01*
X108712000Y-97398000D02*
X108212000Y-97398000D01*
X108712000Y-97398000D02*
X109212000Y-97398000D01*
X108712000Y-99198000D02*
X108212000Y-99198000D01*
X108712000Y-99198000D02*
X109212000Y-99198000D01*
X111312000Y-98598000D02*
X111312000Y-97998000D01*
D12*
%TO.C,R11*%
X118425000Y-111798000D02*
X119025000Y-111798000D01*
X118445000Y-110198000D02*
X119045000Y-110198000D01*
%TO.C,J6*%
X97028000Y-47371000D02*
X97028000Y-54991000D01*
X97028000Y-48641000D02*
X107188000Y-48641000D01*
X97028000Y-54991000D02*
X107188000Y-54991000D01*
X107188000Y-47371000D02*
X97028000Y-47371000D01*
X107188000Y-54991000D02*
X107188000Y-47371000D01*
%TO.C,D2*%
X100078000Y-65284000D02*
X93178000Y-65284000D01*
X100078000Y-68584000D02*
X93178000Y-68584000D01*
X100078000Y-68584000D02*
X100078000Y-65284000D01*
%TO.C,D5*%
X100078000Y-75362460D02*
X93178000Y-75362460D01*
X100078000Y-78662460D02*
X93178000Y-78662460D01*
X100078000Y-78662460D02*
X100078000Y-75362460D01*
%TO.C,D11*%
X93180000Y-121424000D02*
X93180000Y-120824000D01*
X94780000Y-121444000D02*
X94780000Y-120844000D01*
%TD*%
M02*
