M48
; DRILL file {KiCad 9.0.5} date 2025-11-06T15:35:02+0700
; FORMAT={-:-/ absolute / metric / decimal}
; #@! TF.CreationDate,2025-11-06T15:35:02+07:00
; #@! TF.GenerationSoftware,Kicad,Pcbnew,9.0.5
; #@! TF.FileFunction,Plated,1,2,PTH
FMAT,2
METRIC
; #@! TA.AperFunction,Plated,PTH,ViaDrill
T1C0.400
; #@! TA.AperFunction,Plated,PTH,ComponentDrill
T2C0.500
; #@! TA.AperFunction,Plated,PTH,ComponentDrill
T3C1.000
; #@! TA.AperFunction,Plated,PTH,ComponentDrill
T4C1.520
; #@! TA.AperFunction,Plated,PTH,ComponentDrill
T5C2.500
%
G90
G05
T1
X90.932Y-68.834
X90.932Y-79.502
X91.186Y-62.484
X91.186Y-63.754
X91.186Y-65.024
X91.186Y-84.328
X91.948Y-85.852
X92.71Y-84.328
X93.726Y-85.852
X94.488Y-84.328
X95.25Y-85.852
X95.504Y-96.266
X96.012Y-84.328
X96.012Y-98.552
X96.012Y-101.346
X96.52Y-100.33
X96.774Y-85.852
X96.774Y-97.282
X97.282Y-101.346
X97.536Y-84.328
X97.663Y-74.549
X97.79Y-96.266
X97.79Y-98.552
X97.79Y-100.33
X98.552Y-101.346
X99.06Y-74.549
X99.06Y-97.282
X99.06Y-100.33
X99.568Y-98.552
X99.822Y-101.346
X100.076Y-96.266
X100.33Y-74.549
X102.362Y-80.264
X103.632Y-77.343
X103.632Y-84.074
X104.14Y-78.74
X104.648Y-100.838
X104.648Y-102.108
X104.648Y-103.632
X104.67Y-68.304
X105.029Y-77.47
X105.791Y-78.74
X106.172Y-100.838
X106.172Y-102.108
X106.172Y-103.632
X106.934Y-84.074
X107.442Y-85.852
X107.696Y-83.058
X107.865Y-77.301
X108.458Y-84.836
X108.712Y-92.71
X109.982Y-93.472
X109.982Y-102.362
X111.557Y-73.558
X112.065Y-68.275
X112.319Y-67.361
X113.284Y-73.406
X113.487Y-72.39
X113.589Y-67.412
X113.995Y-66.345
X114.859Y-67.412
X115.164Y-73.609
X115.265Y-72.441
X115.57Y-68.478
X115.926Y-66.294
X116.281Y-67.412
X116.586Y-101.346
X117.094Y-72.39
X117.094Y-73.406
X117.45Y-67.31
X117.602Y-66.396
X118.669Y-67.31
X119.939Y-66.294
X120.04Y-67.31
X120.565Y-77.301
X123.337Y-68.727
X125.797Y-79.947
X126.746Y-80.264
X128.118Y-74.625
X128.778Y-85.852
X129.388Y-74.676
X129.54Y-84.582
X130.302Y-85.852
X130.607Y-74.676
X131.064Y-84.582
X131.826Y-74.676
X132.08Y-85.852
X132.588Y-84.582
X133.604Y-85.852
X134.112Y-84.582
X135.128Y-85.852
X135.89Y-84.582
X136.398Y-62.484
X136.398Y-63.5
X136.398Y-64.77
X136.906Y-69.088
X136.906Y-80.01
X136.906Y-85.852
X137.414Y-84.582
T2
X91.821Y-127.183
X91.851Y-58.166
X92.37Y-125.857
X92.37Y-128.509
X92.4Y-56.84
X92.4Y-59.492
X93.696Y-125.308
X93.696Y-129.058
X93.726Y-56.291
X93.726Y-60.041
X95.022Y-125.857
X95.022Y-128.509
X95.052Y-56.84
X95.052Y-59.492
X95.571Y-127.183
X95.601Y-58.166
X132.491Y-58.166
X132.491Y-127.183
X133.04Y-56.84
X133.04Y-59.492
X133.04Y-125.857
X133.04Y-128.509
X134.366Y-56.291
X134.366Y-60.041
X134.366Y-125.308
X134.366Y-129.058
X135.692Y-56.84
X135.692Y-59.492
X135.692Y-125.857
X135.692Y-128.509
X136.241Y-58.166
X136.241Y-127.183
T3
X93.98Y-88.392
X93.98Y-90.932
X93.98Y-93.472
X93.98Y-98.283
X93.98Y-100.823
X93.98Y-103.363
X93.98Y-105.903
X93.98Y-108.443
X93.98Y-110.983
X93.98Y-113.523
X93.98Y-116.063
X102.131Y-98.298
X102.131Y-100.838
X102.131Y-103.378
X102.131Y-105.918
X102.131Y-108.458
X102.131Y-110.998
X102.131Y-113.538
X102.131Y-116.078
X105.325Y-75.309
X106.595Y-70.229
X107.865Y-75.309
X109.135Y-70.229
X110.405Y-75.309
X111.675Y-70.229
X112.945Y-75.309
X114.215Y-70.229
X115.485Y-75.309
X116.755Y-70.229
X118.025Y-75.309
X119.295Y-70.229
X120.565Y-75.309
X121.835Y-70.229
X123.105Y-75.309
X124.991Y-98.298
X124.991Y-100.838
X124.991Y-103.378
X124.991Y-105.918
X124.991Y-108.458
X124.991Y-110.998
X124.991Y-113.538
X124.991Y-116.078
X133.096Y-88.392
X133.096Y-90.932
X133.096Y-93.472
X133.096Y-98.298
X133.096Y-100.838
X133.096Y-103.378
X133.096Y-105.918
X133.096Y-108.458
X133.096Y-110.998
X133.096Y-113.538
X133.096Y-116.078
T4
X99.568Y-51.181
X104.648Y-51.181
X111.125Y-51.181
X116.205Y-51.181
X122.809Y-51.181
X127.889Y-51.181
T5
X93.696Y-127.183
X93.726Y-58.166
X134.366Y-58.166
X134.366Y-127.183
M30
