%TF.GenerationSoftware,KiCad,Pcbnew,9.0.5*%
%TF.CreationDate,2025-11-06T15:37:29+07:00*%
%TF.ProjectId,pcb_esp32_jetbot_kicad,7063625f-6573-4703-9332-5f6a6574626f,rev?*%
%TF.SameCoordinates,Original*%
%TF.FileFunction,Copper,L1,Top*%
%TF.FilePolarity,Positive*%
%FSLAX46Y46*%
G04 Gerber Fmt 4.6, Leading zero omitted, Abs format (unit mm)*
G04 Created by KiCad (PCBNEW 9.0.5) date 2025-11-06 15:37:29*
%MOMM*%
%LPD*%
G01*
G04 APERTURE LIST*
G04 Aperture macros list*
%AMRoundRect*
0 Rectangle with rounded corners*
0 $1 Rounding radius*
0 $2 $3 $4 $5 $6 $7 $8 $9 X,Y pos of 4 corners*
0 Add a 4 corners polygon primitive as box body*
4,1,4,$2,$3,$4,$5,$6,$7,$8,$9,$2,$3,0*
0 Add four circle primitives for the rounded corners*
1,1,$1+$1,$2,$3*
1,1,$1+$1,$4,$5*
1,1,$1+$1,$6,$7*
1,1,$1+$1,$8,$9*
0 Add four rect primitives between the rounded corners*
20,1,$1+$1,$2,$3,$4,$5,0*
20,1,$1+$1,$4,$5,$6,$7,0*
20,1,$1+$1,$6,$7,$8,$9,0*
20,1,$1+$1,$8,$9,$2,$3,0*%
G04 Aperture macros list end*
%TA.AperFunction,ComponentPad*%
%ADD10R,1.800000X1.800000*%
%TD*%
%TA.AperFunction,ComponentPad*%
%ADD11C,1.800000*%
%TD*%
%TA.AperFunction,ComponentPad*%
%ADD12RoundRect,0.249999X0.850001X0.850001X-0.850001X0.850001X-0.850001X-0.850001X0.850001X-0.850001X0*%
%TD*%
%TA.AperFunction,ComponentPad*%
%ADD13C,2.200000*%
%TD*%
%TA.AperFunction,ComponentPad*%
%ADD14RoundRect,0.250000X0.550000X-0.550000X0.550000X0.550000X-0.550000X0.550000X-0.550000X-0.550000X0*%
%TD*%
%TA.AperFunction,ComponentPad*%
%ADD15C,1.600000*%
%TD*%
%TA.AperFunction,ComponentPad*%
%ADD16RoundRect,0.250000X1.050000X1.050000X-1.050000X1.050000X-1.050000X-1.050000X1.050000X-1.050000X0*%
%TD*%
%TA.AperFunction,ComponentPad*%
%ADD17C,2.600000*%
%TD*%
%TA.AperFunction,ComponentPad*%
%ADD18R,1.700000X1.700000*%
%TD*%
%TA.AperFunction,ComponentPad*%
%ADD19C,1.700000*%
%TD*%
%TA.AperFunction,ComponentPad*%
%ADD20RoundRect,0.250000X-0.600000X-0.750000X0.600000X-0.750000X0.600000X0.750000X-0.600000X0.750000X0*%
%TD*%
%TA.AperFunction,ComponentPad*%
%ADD21O,1.700000X2.000000*%
%TD*%
%TA.AperFunction,ComponentPad*%
%ADD22R,1.905000X2.000000*%
%TD*%
%TA.AperFunction,ComponentPad*%
%ADD23O,1.905000X2.000000*%
%TD*%
%TA.AperFunction,ComponentPad*%
%ADD24R,3.500000X3.500000*%
%TD*%
%TA.AperFunction,ComponentPad*%
%ADD25RoundRect,0.750000X1.000000X-0.750000X1.000000X0.750000X-1.000000X0.750000X-1.000000X-0.750000X0*%
%TD*%
%TA.AperFunction,ComponentPad*%
%ADD26RoundRect,0.875000X0.875000X-0.875000X0.875000X0.875000X-0.875000X0.875000X-0.875000X-0.875000X0*%
%TD*%
%TA.AperFunction,ComponentPad*%
%ADD27O,2.200000X3.500000*%
%TD*%
%TA.AperFunction,ComponentPad*%
%ADD28R,1.500000X2.500000*%
%TD*%
%TA.AperFunction,ComponentPad*%
%ADD29O,1.500000X2.500000*%
%TD*%
%TA.AperFunction,ComponentPad*%
%ADD30O,1.900000X1.524000*%
%TD*%
%TA.AperFunction,ViaPad*%
%ADD31C,0.600000*%
%TD*%
%TA.AperFunction,ViaPad*%
%ADD32C,0.800000*%
%TD*%
%TA.AperFunction,Conductor*%
%ADD33C,0.750000*%
%TD*%
%TA.AperFunction,Conductor*%
%ADD34C,1.000000*%
%TD*%
%TA.AperFunction,Conductor*%
%ADD35C,0.500000*%
%TD*%
%TA.AperFunction,Conductor*%
%ADD36C,1.500000*%
%TD*%
%TA.AperFunction,Conductor*%
%ADD37C,1.650000*%
%TD*%
%TA.AperFunction,Conductor*%
%ADD38C,1.750000*%
%TD*%
%TA.AperFunction,Conductor*%
%ADD39C,0.250000*%
%TD*%
G04 APERTURE END LIST*
D10*
%TO.P,D10,1,K*%
%TO.N,GND*%
X162000000Y-76730000D03*
D11*
%TO.P,D10,2,A*%
%TO.N,Net-(D10-A)*%
X162000000Y-79270000D03*
%TD*%
D10*
%TO.P,D1,1,K*%
%TO.N,GND*%
X155000000Y-76730000D03*
D11*
%TO.P,D1,2,A*%
%TO.N,Net-(D1-A)*%
X155000000Y-79270000D03*
%TD*%
D12*
%TO.P,D5,1,K*%
%TO.N,POWER_SEL*%
X165580000Y-57500000D03*
D13*
%TO.P,D5,2,A*%
%TO.N,Net-(D5-A)*%
X155420000Y-57500000D03*
%TD*%
D14*
%TO.P,CP1,1*%
%TO.N,+5V*%
X103000000Y-77500000D03*
D15*
%TO.P,CP1,2*%
%TO.N,GND*%
X103000000Y-75500000D03*
%TD*%
D16*
%TO.P,TerminalBlock-2,1,Pin_1*%
%TO.N,Net-(D5-A)*%
X155545000Y-43667500D03*
D17*
%TO.P,TerminalBlock-2,2,Pin_2*%
%TO.N,Net-(D2-A)*%
X150465000Y-43667500D03*
%TD*%
D12*
%TO.P,D9,1,K*%
%TO.N,Net-(D4-A)*%
X104580000Y-62000000D03*
D13*
%TO.P,D9,2,A*%
%TO.N,GND*%
X94420000Y-62000000D03*
%TD*%
D18*
%TO.P,J3,1,Pin_1*%
%TO.N,GND*%
X148500000Y-56800000D03*
D19*
%TO.P,J3,2,Pin_2*%
%TO.N,GPIO23*%
X148500000Y-59340000D03*
%TO.P,J3,3,Pin_3*%
%TO.N,GPIO22*%
X148500000Y-61880000D03*
%TO.P,J3,4,Pin_4*%
%TO.N,TX*%
X148500000Y-64420000D03*
%TO.P,J3,5,Pin_5*%
%TO.N,RX*%
X148500000Y-66960000D03*
%TO.P,J3,6,Pin_6*%
%TO.N,GPIO21*%
X148500000Y-69500000D03*
%TO.P,J3,7,Pin_7*%
%TO.N,GND*%
X148500000Y-72040000D03*
%TO.P,J3,8,Pin_8*%
%TO.N,GPIO19*%
X148500000Y-74580000D03*
%TO.P,J3,9,Pin_9*%
%TO.N,GPIO18*%
X148500000Y-77120000D03*
%TO.P,J3,10,Pin_10*%
%TO.N,GPIO5*%
X148500000Y-79660000D03*
%TO.P,J3,11,Pin_11*%
%TO.N,GPIO17*%
X148500000Y-82200000D03*
%TO.P,J3,12,Pin_12*%
%TO.N,GPIO16*%
X148500000Y-84740000D03*
%TO.P,J3,13,Pin_13*%
%TO.N,GPIO4*%
X148500000Y-87280000D03*
%TO.P,J3,14,Pin_14*%
%TO.N,GPIO0*%
X148500000Y-89820000D03*
%TO.P,J3,15,Pin_15*%
%TO.N,GPIO2*%
X148500000Y-92360000D03*
%TO.P,J3,16,Pin_16*%
%TO.N,GPIO15*%
X148500000Y-94900000D03*
%TO.P,J3,17,Pin_17*%
%TO.N,GPIO8*%
X148500000Y-97440000D03*
%TO.P,J3,18,Pin_18*%
%TO.N,GPIO7*%
X148500000Y-99980000D03*
%TO.P,J3,19,Pin_19*%
%TO.N,GPIO6*%
X148500000Y-102520000D03*
%TD*%
D15*
%TO.P,R1,1*%
%TO.N,Net-(D1-A)*%
X133500000Y-85810000D03*
%TO.P,R1,2*%
%TO.N,+5V*%
X133500000Y-78190000D03*
%TD*%
D20*
%TO.P,Connector_JST1,1,Pin_1*%
%TO.N,POWER_SEL*%
X157500000Y-97340000D03*
D21*
%TO.P,Connector_JST1,2,Pin_2*%
%TO.N,GND*%
X160000000Y-97340000D03*
%TD*%
D15*
%TO.P,C2,1*%
%TO.N,+5V*%
X128750000Y-72500000D03*
%TO.P,C2,2*%
%TO.N,GND*%
X131250000Y-72500000D03*
%TD*%
D14*
%TO.P,CP3,1*%
%TO.N,Net-(SW1-A)*%
X95500000Y-77455113D03*
D15*
%TO.P,CP3,2*%
%TO.N,GND*%
X95500000Y-75455113D03*
%TD*%
D22*
%TO.P,U3,1,VI*%
%TO.N,Net-(SW1-A)*%
X96500000Y-84500000D03*
D23*
%TO.P,U3,2,GND*%
%TO.N,GND*%
X99040000Y-84500000D03*
%TO.P,U3,3,VO*%
%TO.N,+5V*%
X101580000Y-84500000D03*
%TD*%
D18*
%TO.P,J2,1,Pin_1*%
%TO.N,+3V3*%
X110500000Y-56720000D03*
D19*
%TO.P,J2,2,Pin_2*%
%TO.N,EN*%
X110500000Y-59260000D03*
%TO.P,J2,3,Pin_3*%
%TO.N,GPIO36*%
X110500000Y-61800000D03*
%TO.P,J2,4,Pin_4*%
%TO.N,GPIO39*%
X110500000Y-64340000D03*
%TO.P,J2,5,Pin_5*%
%TO.N,GPIO34*%
X110500000Y-66880000D03*
%TO.P,J2,6,Pin_6*%
%TO.N,GPIO35*%
X110500000Y-69420000D03*
%TO.P,J2,7,Pin_7*%
%TO.N,GPIO32*%
X110500000Y-71960000D03*
%TO.P,J2,8,Pin_8*%
%TO.N,GPIO33*%
X110500000Y-74500000D03*
%TO.P,J2,9,Pin_9*%
%TO.N,GPIO25*%
X110500000Y-77040000D03*
%TO.P,J2,10,Pin_10*%
%TO.N,GPIO26*%
X110500000Y-79580000D03*
%TO.P,J2,11,Pin_11*%
%TO.N,GPIO27*%
X110500000Y-82120000D03*
%TO.P,J2,12,Pin_12*%
%TO.N,GPIO14*%
X110500000Y-84660000D03*
%TO.P,J2,13,Pin_13*%
%TO.N,GPIO12*%
X110500000Y-87200000D03*
%TO.P,J2,14,Pin_14*%
%TO.N,GND*%
X110500000Y-89740000D03*
%TO.P,J2,15,Pin_15*%
%TO.N,GPIO13*%
X110500000Y-92280000D03*
%TO.P,J2,16,Pin_16*%
%TO.N,GPIO9*%
X110500000Y-94820000D03*
%TO.P,J2,17,Pin_17*%
%TO.N,GPIO10*%
X110500000Y-97360000D03*
%TO.P,J2,18,Pin_18*%
%TO.N,GPIO11*%
X110500000Y-99900000D03*
%TO.P,J2,19,Pin_19*%
%TO.N,+5V*%
X110500000Y-102440000D03*
%TD*%
D10*
%TO.P,U1,1,SENSE_A*%
%TO.N,GND*%
X120650000Y-47420000D03*
D11*
%TO.P,U1,2,OUT1*%
%TO.N,Net-(D5-A)*%
X121920000Y-42340000D03*
%TO.P,U1,3,OUT2*%
%TO.N,Net-(D2-A)*%
X123190000Y-47420000D03*
%TO.P,U1,4,Vs*%
%TO.N,POWER_SEL*%
X124460000Y-42340000D03*
%TO.P,U1,5,IN1*%
%TO.N,GPIO26*%
X125730000Y-47420000D03*
%TO.P,U1,6,EnA*%
%TO.N,GPIO25*%
X127000000Y-42340000D03*
%TO.P,U1,7,IN2*%
%TO.N,GPIO27*%
X128270000Y-47420000D03*
%TO.P,U1,8,GND*%
%TO.N,GND*%
X129540000Y-42340000D03*
%TO.P,U1,9,Vss*%
%TO.N,+5V*%
X130810000Y-47420000D03*
%TO.P,U1,10,IN3*%
%TO.N,GPIO12*%
X132080000Y-42340000D03*
%TO.P,U1,11,EnB*%
%TO.N,GPIO14*%
X133350000Y-47420000D03*
%TO.P,U1,12,IN4*%
%TO.N,GPIO13*%
X134620000Y-42340000D03*
%TO.P,U1,13,OUT3*%
%TO.N,Net-(D3-A)*%
X135890000Y-47420000D03*
%TO.P,U1,14,OUT4*%
%TO.N,Net-(D4-A)*%
X137160000Y-42340000D03*
%TO.P,U1,15,SENSE_B*%
%TO.N,GND*%
X138430000Y-47420000D03*
%TD*%
D12*
%TO.P,D7,1,K*%
%TO.N,Net-(D2-A)*%
X104660000Y-66140000D03*
D13*
%TO.P,D7,2,A*%
%TO.N,GND*%
X94500000Y-66140000D03*
%TD*%
D16*
%TO.P,TerminalBlock-1,1,Pin_1*%
%TO.N,Net-(D3-A)*%
X108545000Y-44167500D03*
D17*
%TO.P,TerminalBlock-1,2,Pin_2*%
%TO.N,Net-(D4-A)*%
X103465000Y-44167500D03*
%TD*%
D24*
%TO.P,J4,1*%
%TO.N,POWER_SEL*%
X99000000Y-91000000D03*
D25*
%TO.P,J4,2*%
%TO.N,GND*%
X99000000Y-97000000D03*
D26*
%TO.P,J4,3*%
%TO.N,unconnected-(J4-Pad3)*%
X103700000Y-94000000D03*
%TD*%
D12*
%TO.P,D4,1,K*%
%TO.N,POWER_SEL*%
X165500000Y-62000000D03*
D13*
%TO.P,D4,2,A*%
%TO.N,Net-(D4-A)*%
X155340000Y-62000000D03*
%TD*%
D12*
%TO.P,D8,1,K*%
%TO.N,Net-(D3-A)*%
X104580000Y-57500000D03*
D13*
%TO.P,D8,2,A*%
%TO.N,GND*%
X94420000Y-57500000D03*
%TD*%
D27*
%TO.P,SW1,*%
%TO.N,*%
X163600000Y-86500000D03*
X155400000Y-86500000D03*
D28*
%TO.P,SW1,1,A*%
%TO.N,Net-(SW1-A)*%
X161500000Y-86500000D03*
D29*
%TO.P,SW1,2,B*%
%TO.N,POWER_SEL*%
X159500000Y-86500000D03*
%TO.P,SW1,3,C*%
%TO.N,unconnected-(SW1-C-Pad3)*%
X157500000Y-86500000D03*
%TD*%
D15*
%TO.P,R2,1*%
%TO.N,Net-(D10-A)*%
X126000000Y-86000000D03*
%TO.P,R2,2*%
%TO.N,GPIO25*%
X126000000Y-78380000D03*
%TD*%
D30*
%TO.P,U2,1,5v*%
%TO.N,+5V*%
X118500000Y-102660000D03*
%TO.P,U2,2,GPIO11*%
%TO.N,GPIO11*%
X118500000Y-100120000D03*
%TO.P,U2,3,GPIO10*%
%TO.N,GPIO10*%
X118500000Y-97580000D03*
%TO.P,U2,4,GPIO9*%
%TO.N,GPIO9*%
X118500000Y-95040000D03*
%TO.P,U2,5,GPIO13*%
%TO.N,GPIO13*%
X118500000Y-92500000D03*
%TO.P,U2,6,GND*%
%TO.N,GND*%
X118500000Y-89960000D03*
%TO.P,U2,7,GPIO12*%
%TO.N,GPIO12*%
X118500000Y-87420000D03*
%TO.P,U2,8,GPIO14*%
%TO.N,GPIO14*%
X118500000Y-84880000D03*
%TO.P,U2,9,GPIO27*%
%TO.N,GPIO27*%
X118500000Y-82340000D03*
%TO.P,U2,10,GPIO26*%
%TO.N,GPIO26*%
X118500000Y-79800000D03*
%TO.P,U2,11,GPIO25*%
%TO.N,GPIO25*%
X118500000Y-77260000D03*
%TO.P,U2,12,GPIO33*%
%TO.N,GPIO33*%
X118500000Y-74720000D03*
%TO.P,U2,13,GPIO32*%
%TO.N,GPIO32*%
X118500000Y-72180000D03*
%TO.P,U2,14,GPIO35*%
%TO.N,GPIO35*%
X118500000Y-69640000D03*
%TO.P,U2,15,GPIO34*%
%TO.N,GPIO34*%
X118500000Y-67100000D03*
%TO.P,U2,16,GPIO39*%
%TO.N,GPIO39*%
X118500000Y-64560000D03*
%TO.P,U2,17,GPIO36*%
%TO.N,GPIO36*%
X118500000Y-62020000D03*
%TO.P,U2,18,EN*%
%TO.N,EN*%
X118500000Y-59480000D03*
%TO.P,U2,19,3.3v*%
%TO.N,+3V3*%
X118500000Y-56940000D03*
%TO.P,U2,20,GPIO6*%
%TO.N,GPIO6*%
X141360000Y-102660000D03*
%TO.P,U2,21,GPIO7*%
%TO.N,GPIO7*%
X141360000Y-100120000D03*
%TO.P,U2,22,GPIO8*%
%TO.N,GPIO8*%
X141360000Y-97580000D03*
%TO.P,U2,23,GPIO15*%
%TO.N,GPIO15*%
X141360000Y-95040000D03*
%TO.P,U2,24,GPIO2*%
%TO.N,GPIO2*%
X141360000Y-92500000D03*
%TO.P,U2,25,GPIO0*%
%TO.N,GPIO0*%
X141360000Y-89960000D03*
%TO.P,U2,26,GPIO4*%
%TO.N,GPIO4*%
X141360000Y-87420000D03*
%TO.P,U2,27,GPIO16*%
%TO.N,GPIO16*%
X141360000Y-84880000D03*
%TO.P,U2,28,GPIO17*%
%TO.N,GPIO17*%
X141360000Y-82340000D03*
%TO.P,U2,29,GPIO5*%
%TO.N,GPIO5*%
X141360000Y-79800000D03*
%TO.P,U2,30,GPIO18*%
%TO.N,GPIO18*%
X141360000Y-77260000D03*
%TO.P,U2,31,GPIO19*%
%TO.N,GPIO19*%
X141360000Y-74720000D03*
%TO.P,U2,32,GND*%
%TO.N,GND*%
X141360000Y-72180000D03*
%TO.P,U2,33,GPIO21*%
%TO.N,GPIO21*%
X141360000Y-69640000D03*
%TO.P,U2,34,GPIO3*%
%TO.N,RX*%
X141360000Y-67100000D03*
%TO.P,U2,35,GPIO1*%
%TO.N,TX*%
X141360000Y-64560000D03*
%TO.P,U2,36,GPIO22*%
%TO.N,GPIO22*%
X141360000Y-62020000D03*
%TO.P,U2,37,GPIO23*%
%TO.N,GPIO23*%
X141360000Y-59480000D03*
%TO.P,U2,38,GND*%
%TO.N,GND*%
X141360000Y-56940000D03*
%TD*%
D12*
%TO.P,D3,1,K*%
%TO.N,POWER_SEL*%
X165580000Y-66750000D03*
D13*
%TO.P,D3,2,A*%
%TO.N,Net-(D3-A)*%
X155420000Y-66750000D03*
%TD*%
D12*
%TO.P,D2,1,K*%
%TO.N,POWER_SEL*%
X165580000Y-71000000D03*
D13*
%TO.P,D2,2,A*%
%TO.N,Net-(D2-A)*%
X155420000Y-71000000D03*
%TD*%
D12*
%TO.P,D6,1,K*%
%TO.N,Net-(D5-A)*%
X104740000Y-70140000D03*
D13*
%TO.P,D6,2,A*%
%TO.N,GND*%
X94580000Y-70140000D03*
%TD*%
D31*
%TO.N,GND*%
X115500000Y-45500000D03*
X115500000Y-46500000D03*
D32*
%TO.N,+5V*%
X124500000Y-55000000D03*
X125000000Y-54500000D03*
X124000000Y-55500000D03*
X128500000Y-51500000D03*
X129500000Y-51500000D03*
%TO.N,Net-(D2-A)*%
X113500000Y-40500000D03*
%TO.N,Net-(D4-A)*%
X158000000Y-40500000D03*
X158000000Y-39500000D03*
X157250000Y-38750000D03*
%TO.N,Net-(D5-A)*%
X114500000Y-38500000D03*
D31*
%TO.N,GPIO25*%
X116500000Y-50500000D03*
%TO.N,GPIO13*%
X117500000Y-49500000D03*
%TO.N,GPIO12*%
X116500000Y-49500000D03*
%TD*%
D33*
%TO.N,GND*%
X148360000Y-56940000D02*
X148500000Y-56800000D01*
D34*
X138430000Y-47420000D02*
X141360000Y-50350000D01*
D35*
X141040000Y-72500000D02*
X141360000Y-72180000D01*
D33*
X141360000Y-72180000D02*
X148360000Y-72180000D01*
X118140000Y-89820000D02*
X110580000Y-89820000D01*
X148360000Y-72180000D02*
X148500000Y-72040000D01*
D35*
X120650000Y-47420000D02*
X116420000Y-47420000D01*
X115500000Y-46500000D02*
X115500000Y-45500000D01*
D33*
X141360000Y-56940000D02*
X148360000Y-56940000D01*
D34*
X141360000Y-50350000D02*
X141360000Y-56940000D01*
D33*
X110580000Y-89820000D02*
X110500000Y-89740000D01*
D35*
X116420000Y-47420000D02*
X115500000Y-46500000D01*
D34*
%TO.N,+5V*%
X128750000Y-72500000D02*
X125500000Y-72500000D01*
X128750000Y-73250000D02*
X130300000Y-74800000D01*
X128000000Y-51500000D02*
X130000000Y-51500000D01*
X118140000Y-102520000D02*
X110580000Y-102520000D01*
X101580000Y-84500000D02*
X104500000Y-84500000D01*
X130300000Y-74800000D02*
X132300000Y-74800000D01*
X104500000Y-84500000D02*
X106700000Y-86700000D01*
X108560000Y-102440000D02*
X110500000Y-102440000D01*
X123500000Y-70500000D02*
X123500000Y-56000000D01*
X123500000Y-56000000D02*
X128000000Y-51500000D01*
X102500000Y-78000000D02*
X103000000Y-78000000D01*
X128750000Y-72500000D02*
X128750000Y-73250000D01*
X101580000Y-84500000D02*
X101580000Y-78920000D01*
X133500000Y-76000000D02*
X133500000Y-78190000D01*
X125500000Y-72500000D02*
X123500000Y-70500000D01*
X106700000Y-100580000D02*
X108560000Y-102440000D01*
X101580000Y-78920000D02*
X102500000Y-78000000D01*
D33*
X110580000Y-102520000D02*
X110500000Y-102440000D01*
D34*
X106700000Y-86700000D02*
X106700000Y-100580000D01*
X132300000Y-74800000D02*
X133500000Y-76000000D01*
X103000000Y-78000000D02*
X103000000Y-77500000D01*
D36*
%TO.N,POWER_SEL*%
X165500000Y-57580000D02*
X165580000Y-57500000D01*
D37*
X159500000Y-86500000D02*
X159500000Y-84598000D01*
X121500000Y-36000000D02*
X124500000Y-36000000D01*
X157500000Y-97340000D02*
X157500000Y-93500000D01*
X94500000Y-91000000D02*
X90500000Y-87000000D01*
X90000000Y-86500000D02*
X90000000Y-47000000D01*
X158500000Y-36000000D02*
X127500000Y-36000000D01*
X157500000Y-93500000D02*
X159500000Y-91500000D01*
X90500000Y-87000000D02*
X90000000Y-86500000D01*
X165580000Y-43080000D02*
X158500000Y-36000000D01*
X164000000Y-82500000D02*
X165580000Y-80920000D01*
X165580000Y-66750000D02*
X165580000Y-62080000D01*
D38*
X124460000Y-38960000D02*
X121500000Y-36000000D01*
D37*
X127500000Y-36000000D02*
X124460000Y-39040000D01*
X101000000Y-36000000D02*
X121500000Y-36000000D01*
X165580000Y-57500000D02*
X165580000Y-43080000D01*
D38*
X124460000Y-39040000D02*
X124460000Y-37500000D01*
D37*
X124500000Y-36000000D02*
X126000000Y-36000000D01*
D36*
X165580000Y-62080000D02*
X165500000Y-62000000D01*
D37*
X165580000Y-71000000D02*
X165580000Y-66750000D01*
X99000000Y-91000000D02*
X94500000Y-91000000D01*
X90000000Y-47000000D02*
X90500000Y-46500000D01*
D38*
X124460000Y-37500000D02*
X124460000Y-36040000D01*
D37*
X90500000Y-46500000D02*
X101000000Y-36000000D01*
X124460000Y-39040000D02*
X124460000Y-42340000D01*
X159500000Y-91500000D02*
X159500000Y-86500000D01*
D38*
X124500000Y-37500000D02*
X126000000Y-36000000D01*
D37*
X159500000Y-84598000D02*
X161598000Y-82500000D01*
D38*
X124460000Y-39040000D02*
X124460000Y-38960000D01*
X124460000Y-37500000D02*
X124500000Y-37500000D01*
D37*
X126000000Y-36000000D02*
X127500000Y-36000000D01*
D38*
X124460000Y-36040000D02*
X124500000Y-36000000D01*
D37*
X161598000Y-82500000D02*
X164000000Y-82500000D01*
X165500000Y-62000000D02*
X165500000Y-57580000D01*
X165580000Y-80920000D02*
X165580000Y-71000000D01*
D34*
%TO.N,Net-(SW1-A)*%
X95500000Y-77455113D02*
X95500000Y-80500000D01*
X95500000Y-80500000D02*
X96500000Y-81500000D01*
X96500000Y-81500000D02*
X96500000Y-84500000D01*
D35*
%TO.N,Net-(D1-A)*%
X152000000Y-104500000D02*
X151000000Y-105500000D01*
X152000000Y-84000000D02*
X152000000Y-104500000D01*
X133500000Y-100000000D02*
X139000000Y-105500000D01*
X139000000Y-105500000D02*
X151000000Y-105500000D01*
X133500000Y-85810000D02*
X133500000Y-100000000D01*
X155000000Y-79270000D02*
X155000000Y-81000000D01*
X155000000Y-81000000D02*
X152000000Y-84000000D01*
D34*
%TO.N,Net-(D2-A)*%
X102140000Y-66140000D02*
X99500000Y-63500000D01*
X122000000Y-44500000D02*
X123190000Y-45690000D01*
X123190000Y-45690000D02*
X123190000Y-47420000D01*
X99500000Y-43500000D02*
X102500000Y-40500000D01*
X152500000Y-70000000D02*
X152500000Y-45702500D01*
X117430702Y-44500000D02*
X122000000Y-44500000D01*
X152500000Y-45702500D02*
X150465000Y-43667500D01*
X104660000Y-66140000D02*
X102140000Y-66140000D01*
X153500000Y-71000000D02*
X152500000Y-70000000D01*
X155420000Y-71000000D02*
X153500000Y-71000000D01*
X99500000Y-63500000D02*
X99500000Y-43500000D01*
X113430702Y-40500000D02*
X117430702Y-44500000D01*
X102500000Y-40500000D02*
X113430702Y-40500000D01*
%TO.N,Net-(D3-A)*%
X104580000Y-51580000D02*
X104580000Y-57500000D01*
X108545000Y-47455000D02*
X104500000Y-51500000D01*
X108545000Y-44167500D02*
X108545000Y-47455000D01*
X104500000Y-51500000D02*
X104580000Y-51580000D01*
%TO.N,Net-(D4-A)*%
X102500000Y-62000000D02*
X104580000Y-62000000D01*
X137160000Y-39840000D02*
X137160000Y-42340000D01*
X138500000Y-38500000D02*
X137160000Y-39840000D01*
X103465000Y-44167500D02*
X101500000Y-46132500D01*
X158000000Y-59340000D02*
X158000000Y-39500000D01*
X101500000Y-46132500D02*
X101500000Y-61000000D01*
X157000000Y-38500000D02*
X138500000Y-38500000D01*
X155340000Y-62000000D02*
X158000000Y-59340000D01*
X101500000Y-61000000D02*
X102500000Y-62000000D01*
X158000000Y-39500000D02*
X157000000Y-38500000D01*
%TO.N,Net-(D5-A)*%
X114500000Y-38500000D02*
X102000000Y-38500000D01*
D36*
X155420000Y-57500000D02*
X155420000Y-43792500D01*
D34*
X121920000Y-42340000D02*
X118340000Y-42340000D01*
X118340000Y-42340000D02*
X114500000Y-38500000D01*
X104740000Y-70140000D02*
X103140000Y-70140000D01*
D36*
X155420000Y-43792500D02*
X155545000Y-43667500D01*
D34*
X102000000Y-38500000D02*
X97000000Y-43500000D01*
X97000000Y-43500000D02*
X97000000Y-64004318D01*
X97000000Y-64004318D02*
X100500000Y-67504318D01*
X103140000Y-70140000D02*
X100500000Y-67500000D01*
D35*
%TO.N,Net-(D10-A)*%
X132500000Y-100500000D02*
X138500000Y-106500000D01*
X151500000Y-106500000D02*
X153000000Y-105000000D01*
X156500000Y-81000000D02*
X160270000Y-81000000D01*
X160270000Y-81000000D02*
X162000000Y-79270000D01*
X153000000Y-105000000D02*
X153000000Y-84500000D01*
X126000000Y-86000000D02*
X127000000Y-87000000D01*
X131500000Y-87000000D02*
X132500000Y-88000000D01*
X127000000Y-87000000D02*
X131500000Y-87000000D01*
X132500000Y-88000000D02*
X132500000Y-100500000D01*
X138500000Y-106500000D02*
X151500000Y-106500000D01*
X153000000Y-84500000D02*
X156500000Y-81000000D01*
D33*
%TO.N,+3V3*%
X110580000Y-56800000D02*
X110500000Y-56720000D01*
X118140000Y-56800000D02*
X110580000Y-56800000D01*
%TO.N,GPIO25*%
X118140000Y-77120000D02*
X110580000Y-77120000D01*
D39*
X120500000Y-76120000D02*
X120500000Y-75500000D01*
X119360000Y-77260000D02*
X119500000Y-77120000D01*
X118500000Y-77260000D02*
X119360000Y-77260000D01*
X120500000Y-55000000D02*
X119000000Y-53500000D01*
X120500000Y-70000000D02*
X120500000Y-55000000D01*
D33*
X110580000Y-77120000D02*
X110500000Y-77040000D01*
D39*
X117500000Y-53000000D02*
X116500000Y-52000000D01*
X120500000Y-75500000D02*
X120500000Y-70000000D01*
X116500000Y-52000000D02*
X116500000Y-50500000D01*
X118500000Y-53000000D02*
X117500000Y-53000000D01*
X119500000Y-77120000D02*
X120500000Y-76120000D01*
X119000000Y-53500000D02*
X118500000Y-53000000D01*
%TO.N,GPIO13*%
X107600000Y-54600000D02*
X108300000Y-53900000D01*
X108300000Y-53900000D02*
X112000000Y-50200000D01*
X117500000Y-49000000D02*
X117500000Y-49500000D01*
X110500000Y-92280000D02*
X107600000Y-89380000D01*
X107600000Y-82900000D02*
X107600000Y-54600000D01*
X117049000Y-48549000D02*
X117500000Y-49000000D01*
D33*
X118140000Y-92360000D02*
X110580000Y-92360000D01*
D39*
X115931095Y-48931095D02*
X116313190Y-48549000D01*
X107600000Y-89380000D02*
X107600000Y-82900000D01*
X112000000Y-50200000D02*
X114662190Y-50200000D01*
X114662190Y-50200000D02*
X115931095Y-48931095D01*
X116313190Y-48549000D02*
X117049000Y-48549000D01*
D33*
X110580000Y-92360000D02*
X110500000Y-92280000D01*
%TO.N,GPIO34*%
X118140000Y-66960000D02*
X110580000Y-66960000D01*
X110580000Y-66960000D02*
X110500000Y-66880000D01*
%TO.N,GPIO11*%
X110580000Y-99980000D02*
X110500000Y-99900000D01*
X118140000Y-99980000D02*
X110580000Y-99980000D01*
D39*
%TO.N,GPIO26*%
X121000000Y-55000000D02*
X121000000Y-77300000D01*
X121000000Y-77300000D02*
X118500000Y-79800000D01*
D33*
X118140000Y-79660000D02*
X110580000Y-79660000D01*
D39*
X125730000Y-50270000D02*
X121000000Y-55000000D01*
X125730000Y-47420000D02*
X125730000Y-50270000D01*
D33*
X110580000Y-79660000D02*
X110500000Y-79580000D01*
D39*
%TO.N,GPIO27*%
X126500000Y-50500000D02*
X126500000Y-49190000D01*
X121500000Y-79500000D02*
X121500000Y-55500000D01*
D33*
X110580000Y-82200000D02*
X110500000Y-82120000D01*
D39*
X118140000Y-82200000D02*
X118800000Y-82200000D01*
X126500000Y-49190000D02*
X128270000Y-47420000D01*
X121500000Y-55500000D02*
X126500000Y-50500000D01*
X118800000Y-82200000D02*
X121500000Y-79500000D01*
D33*
X118140000Y-82200000D02*
X110580000Y-82200000D01*
%TO.N,EN*%
X118140000Y-59340000D02*
X110580000Y-59340000D01*
X110580000Y-59340000D02*
X110500000Y-59260000D01*
%TO.N,GPIO35*%
X110580000Y-69500000D02*
X110500000Y-69420000D01*
X118140000Y-69500000D02*
X110580000Y-69500000D01*
%TO.N,GPIO36*%
X118140000Y-61880000D02*
X110580000Y-61880000D01*
X110580000Y-61880000D02*
X110500000Y-61800000D01*
%TO.N,GPIO9*%
X110580000Y-94900000D02*
X110500000Y-94820000D01*
X118140000Y-94900000D02*
X110580000Y-94900000D01*
%TO.N,GPIO14*%
X118140000Y-84740000D02*
X110580000Y-84740000D01*
D39*
X120000000Y-84500000D02*
X120000000Y-83000000D01*
X122000000Y-55800000D02*
X127300000Y-50500000D01*
X122000000Y-81000000D02*
X122000000Y-55800000D01*
X119760000Y-84740000D02*
X120000000Y-84500000D01*
X133350000Y-49450000D02*
X133350000Y-47420000D01*
X127300000Y-50500000D02*
X132300000Y-50500000D01*
D33*
X110580000Y-84740000D02*
X110500000Y-84660000D01*
D39*
X132300000Y-50500000D02*
X133350000Y-49450000D01*
X120000000Y-83000000D02*
X122000000Y-81000000D01*
X118140000Y-84740000D02*
X119760000Y-84740000D01*
D33*
%TO.N,GPIO39*%
X118140000Y-64420000D02*
X110580000Y-64420000D01*
X110580000Y-64420000D02*
X110500000Y-64340000D01*
%TO.N,GPIO10*%
X118140000Y-97440000D02*
X110580000Y-97440000D01*
X110580000Y-97440000D02*
X110500000Y-97360000D01*
%TO.N,GPIO32*%
X118140000Y-72040000D02*
X110580000Y-72040000D01*
X110580000Y-72040000D02*
X110500000Y-71960000D01*
%TO.N,GPIO33*%
X110580000Y-74580000D02*
X110500000Y-74500000D01*
X118140000Y-74580000D02*
X110580000Y-74580000D01*
D39*
%TO.N,GPIO12*%
X114800000Y-50700000D02*
X116000000Y-49500000D01*
D33*
X118140000Y-87280000D02*
X110580000Y-87280000D01*
D39*
X108200000Y-84900000D02*
X108200000Y-54800000D01*
X112300000Y-50700000D02*
X114800000Y-50700000D01*
X116000000Y-49500000D02*
X116500000Y-49500000D01*
X110500000Y-87200000D02*
X108200000Y-84900000D01*
D33*
X110580000Y-87280000D02*
X110500000Y-87200000D01*
D39*
X108200000Y-54800000D02*
X112300000Y-50700000D01*
D33*
%TO.N,GPIO18*%
X148360000Y-77260000D02*
X148500000Y-77120000D01*
X141360000Y-77260000D02*
X148360000Y-77260000D01*
%TO.N,GPIO7*%
X148360000Y-100120000D02*
X148500000Y-99980000D01*
X141360000Y-100120000D02*
X148360000Y-100120000D01*
%TO.N,GPIO22*%
X148360000Y-62020000D02*
X148500000Y-61880000D01*
X141360000Y-62020000D02*
X148360000Y-62020000D01*
%TO.N,GPIO8*%
X141360000Y-97580000D02*
X148360000Y-97580000D01*
X148360000Y-97580000D02*
X148500000Y-97440000D01*
%TO.N,GPIO15*%
X148360000Y-95040000D02*
X148500000Y-94900000D01*
X141360000Y-95040000D02*
X148360000Y-95040000D01*
%TO.N,GPIO16*%
X148360000Y-84880000D02*
X148500000Y-84740000D01*
X141360000Y-84880000D02*
X148360000Y-84880000D01*
%TO.N,GPIO4*%
X141360000Y-87420000D02*
X148360000Y-87420000D01*
X148360000Y-87420000D02*
X148500000Y-87280000D01*
%TO.N,GPIO6*%
X141360000Y-102660000D02*
X148360000Y-102660000D01*
X148360000Y-102660000D02*
X148500000Y-102520000D01*
%TO.N,GPIO0*%
X148360000Y-89960000D02*
X148500000Y-89820000D01*
X141360000Y-89960000D02*
X148360000Y-89960000D01*
%TO.N,GPIO23*%
X148360000Y-59480000D02*
X148500000Y-59340000D01*
X141360000Y-59480000D02*
X148360000Y-59480000D01*
%TO.N,GPIO17*%
X141360000Y-82340000D02*
X148360000Y-82340000D01*
X148360000Y-82340000D02*
X148500000Y-82200000D01*
%TO.N,GPIO5*%
X141360000Y-79800000D02*
X148360000Y-79800000D01*
X148360000Y-79800000D02*
X148500000Y-79660000D01*
%TO.N,GPIO19*%
X148360000Y-74720000D02*
X148500000Y-74580000D01*
X141360000Y-74720000D02*
X148360000Y-74720000D01*
%TO.N,GPIO2*%
X148360000Y-92500000D02*
X148500000Y-92360000D01*
X141360000Y-92500000D02*
X148360000Y-92500000D01*
%TO.N,GPIO21*%
X148360000Y-69640000D02*
X148500000Y-69500000D01*
X141360000Y-69640000D02*
X148360000Y-69640000D01*
%TO.N,RX*%
X141360000Y-67100000D02*
X148360000Y-67100000D01*
X148360000Y-67100000D02*
X148500000Y-66960000D01*
%TO.N,TX*%
X148360000Y-64560000D02*
X148500000Y-64420000D01*
X141360000Y-64560000D02*
X148360000Y-64560000D01*
%TD*%
%TA.AperFunction,Conductor*%
%TO.N,GPIO25*%
G36*
X116781479Y-50555946D02*
G01*
X116788907Y-50560945D01*
X116790626Y-50569733D01*
X116790315Y-50570937D01*
X116627583Y-51086060D01*
X116621823Y-51092917D01*
X116616426Y-51094236D01*
X116383574Y-51094236D01*
X116375301Y-51090809D01*
X116372417Y-51086060D01*
X116209684Y-50570937D01*
X116210460Y-50562016D01*
X116217317Y-50556256D01*
X116218500Y-50555950D01*
X116497682Y-50499469D01*
X116502318Y-50499469D01*
X116781479Y-50555946D01*
G37*
%TD.AperFunction*%
%TD*%
%TA.AperFunction,Conductor*%
%TO.N,GPIO17*%
G36*
X148330107Y-81371620D02*
G01*
X148336330Y-81378059D01*
X148336919Y-81380056D01*
X148500540Y-82197704D01*
X148500540Y-82202296D01*
X148336490Y-83022086D01*
X148331506Y-83029526D01*
X148322721Y-83031262D01*
X148279012Y-83022086D01*
X146825629Y-82716951D01*
X146818236Y-82711898D01*
X146816333Y-82705501D01*
X146816333Y-81972962D01*
X146819760Y-81964689D01*
X146823737Y-81962079D01*
X148321153Y-81371468D01*
X148330107Y-81371620D01*
G37*
%TD.AperFunction*%
%TD*%
%TA.AperFunction,Conductor*%
%TO.N,GND*%
G36*
X147656656Y-56023289D02*
G01*
X148492017Y-56791736D01*
X148495786Y-56799859D01*
X148492707Y-56808268D01*
X148492364Y-56808625D01*
X147655424Y-57644581D01*
X147647149Y-57648003D01*
X147642866Y-57647188D01*
X146807410Y-57317920D01*
X146800970Y-57311698D01*
X146800000Y-57307035D01*
X146800000Y-56571378D01*
X146803427Y-56563105D01*
X146805362Y-56561544D01*
X147642397Y-56022065D01*
X147651207Y-56020464D01*
X147656656Y-56023289D01*
G37*
%TD.AperFunction*%
%TD*%
%TA.AperFunction,Conductor*%
%TO.N,GPIO18*%
G36*
X143048746Y-76882643D02*
G01*
X143055821Y-76888132D01*
X143057358Y-76893928D01*
X143057358Y-77626071D01*
X143053931Y-77634344D01*
X143048746Y-77637356D01*
X141706295Y-78004720D01*
X141697411Y-78003598D01*
X141692545Y-77998252D01*
X141361176Y-77264817D01*
X141360892Y-77255867D01*
X141361176Y-77255183D01*
X141524393Y-76893928D01*
X141692545Y-76521746D01*
X141699074Y-76515618D01*
X141706295Y-76515279D01*
X143048746Y-76882643D01*
G37*
%TD.AperFunction*%
%TD*%
%TA.AperFunction,Conductor*%
%TO.N,+5V*%
G36*
X102208876Y-77172294D02*
G01*
X102996214Y-77497437D01*
X103002553Y-77503762D01*
X103002562Y-77503785D01*
X103327704Y-78291120D01*
X103327695Y-78300075D01*
X103323376Y-78305324D01*
X102069070Y-79140700D01*
X102060284Y-79142434D01*
X102054311Y-79139235D01*
X101360764Y-78445688D01*
X101357337Y-78437415D01*
X101359298Y-78430931D01*
X102194676Y-77176621D01*
X102202113Y-77171637D01*
X102208876Y-77172294D01*
G37*
%TD.AperFunction*%
%TD*%
%TA.AperFunction,Conductor*%
%TO.N,GPIO34*%
G36*
X110678558Y-66050851D02*
G01*
X112175880Y-66582236D01*
X112182531Y-66588232D01*
X112183667Y-66593262D01*
X112183667Y-67325860D01*
X112180240Y-67334133D01*
X112174799Y-67337212D01*
X110677725Y-67710698D01*
X110668868Y-67709376D01*
X110663541Y-67702178D01*
X110663425Y-67701667D01*
X110499459Y-66882293D01*
X110499459Y-66877704D01*
X110663176Y-66059580D01*
X110668159Y-66052142D01*
X110676944Y-66050405D01*
X110678558Y-66050851D01*
G37*
%TD.AperFunction*%
%TD*%
%TA.AperFunction,Conductor*%
%TO.N,Net-(D3-A)*%
G36*
X108552130Y-44176422D02*
G01*
X108554276Y-44178568D01*
X109540534Y-45461690D01*
X109542859Y-45470338D01*
X109541723Y-45474052D01*
X109048234Y-46461032D01*
X109041469Y-46466900D01*
X109037769Y-46467500D01*
X108052231Y-46467500D01*
X108043958Y-46464073D01*
X108041766Y-46461032D01*
X107548276Y-45474052D01*
X107547641Y-45465120D01*
X107549463Y-45461693D01*
X108535724Y-44178567D01*
X108543482Y-44174097D01*
X108552130Y-44176422D01*
G37*
%TD.AperFunction*%
%TD*%
%TA.AperFunction,Conductor*%
%TO.N,Net-(D4-A)*%
G36*
X137659032Y-40560720D02*
G01*
X137662141Y-40566283D01*
X138039896Y-42152616D01*
X138038479Y-42161458D01*
X138031224Y-42166708D01*
X138030809Y-42166799D01*
X137162295Y-42340540D01*
X137157705Y-42340540D01*
X136289190Y-42166799D01*
X136281750Y-42161816D01*
X136280012Y-42153031D01*
X136280095Y-42152651D01*
X136657859Y-40566282D01*
X136663109Y-40559028D01*
X136669241Y-40557293D01*
X137650759Y-40557293D01*
X137659032Y-40560720D01*
G37*
%TD.AperFunction*%
%TD*%
%TA.AperFunction,Conductor*%
%TO.N,Net-(D2-A)*%
G36*
X123508849Y-45313157D02*
G01*
X123511809Y-45318159D01*
X124069141Y-47232174D01*
X124068164Y-47241075D01*
X124061179Y-47246678D01*
X124060201Y-47246918D01*
X123192999Y-47420248D01*
X123188416Y-47420249D01*
X122321059Y-47247166D01*
X122313617Y-47242186D01*
X122311875Y-47233402D01*
X122312476Y-47231372D01*
X122798287Y-46008525D01*
X122800884Y-46004576D01*
X123492304Y-45313156D01*
X123500576Y-45309730D01*
X123508849Y-45313157D01*
G37*
%TD.AperFunction*%
%TD*%
%TA.AperFunction,Conductor*%
%TO.N,GND*%
G36*
X148330107Y-71211620D02*
G01*
X148336330Y-71218059D01*
X148336919Y-71220056D01*
X148500540Y-72037704D01*
X148500540Y-72042296D01*
X148336490Y-72862086D01*
X148331506Y-72869526D01*
X148322721Y-72871262D01*
X148279012Y-72862086D01*
X146825629Y-72556951D01*
X146818236Y-72551898D01*
X146816333Y-72545501D01*
X146816333Y-71812962D01*
X146819760Y-71804689D01*
X146823737Y-71802079D01*
X148321153Y-71211468D01*
X148330107Y-71211620D01*
G37*
%TD.AperFunction*%
%TD*%
%TA.AperFunction,Conductor*%
%TO.N,GPIO32*%
G36*
X110678558Y-71130851D02*
G01*
X112175880Y-71662236D01*
X112182531Y-71668232D01*
X112183667Y-71673262D01*
X112183667Y-72405860D01*
X112180240Y-72414133D01*
X112174799Y-72417212D01*
X110677725Y-72790698D01*
X110668868Y-72789376D01*
X110663541Y-72782178D01*
X110663425Y-72781667D01*
X110499459Y-71962293D01*
X110499459Y-71957704D01*
X110663176Y-71139580D01*
X110668159Y-71132142D01*
X110676944Y-71130405D01*
X110678558Y-71130851D01*
G37*
%TD.AperFunction*%
%TD*%
%TA.AperFunction,Conductor*%
%TO.N,GPIO12*%
G36*
X110678558Y-86370851D02*
G01*
X112175880Y-86902236D01*
X112182531Y-86908232D01*
X112183667Y-86913262D01*
X112183667Y-87645860D01*
X112180240Y-87654133D01*
X112174799Y-87657212D01*
X110677725Y-88030698D01*
X110668868Y-88029376D01*
X110663541Y-88022178D01*
X110663425Y-88021667D01*
X110499459Y-87202293D01*
X110499459Y-87197704D01*
X110663176Y-86379580D01*
X110668159Y-86372142D01*
X110676944Y-86370405D01*
X110678558Y-86370851D01*
G37*
%TD.AperFunction*%
%TD*%
%TA.AperFunction,Conductor*%
%TO.N,Net-(D5-A)*%
G36*
X103800630Y-69066232D02*
G01*
X104732357Y-70131163D01*
X104735225Y-70139646D01*
X104731255Y-70147673D01*
X104730523Y-70148263D01*
X103646663Y-70952528D01*
X103637977Y-70954706D01*
X103633130Y-70952820D01*
X102444623Y-70147943D01*
X102439695Y-70140466D01*
X102441496Y-70131694D01*
X102442906Y-70129987D01*
X103138895Y-69433998D01*
X103141355Y-69432119D01*
X103786021Y-69063776D01*
X103794903Y-69062648D01*
X103800630Y-69066232D01*
G37*
%TD.AperFunction*%
%TD*%
%TA.AperFunction,Conductor*%
%TO.N,GPIO27*%
G36*
X128263024Y-47417772D02*
G01*
X128270473Y-47422739D01*
X128272228Y-47426976D01*
X128443602Y-48292709D01*
X128441847Y-48301490D01*
X128435950Y-48306038D01*
X127104745Y-48766558D01*
X127095806Y-48766024D01*
X127092647Y-48763774D01*
X126926225Y-48597352D01*
X126922798Y-48589079D01*
X126923439Y-48585261D01*
X127383961Y-47254047D01*
X127389904Y-47247351D01*
X127397287Y-47246397D01*
X128263024Y-47417772D01*
G37*
%TD.AperFunction*%
%TD*%
%TA.AperFunction,Conductor*%
%TO.N,GPIO17*%
G36*
X143048746Y-81962643D02*
G01*
X143055821Y-81968132D01*
X143057358Y-81973928D01*
X143057358Y-82706071D01*
X143053931Y-82714344D01*
X143048746Y-82717356D01*
X141706295Y-83084720D01*
X141697411Y-83083598D01*
X141692545Y-83078252D01*
X141361176Y-82344817D01*
X141360892Y-82335867D01*
X141361176Y-82335183D01*
X141524393Y-81973928D01*
X141692545Y-81601746D01*
X141699074Y-81595618D01*
X141706295Y-81595279D01*
X143048746Y-81962643D01*
G37*
%TD.AperFunction*%
%TD*%
%TA.AperFunction,Conductor*%
%TO.N,GPIO6*%
G36*
X148330107Y-101691620D02*
G01*
X148336330Y-101698059D01*
X148336919Y-101700056D01*
X148500540Y-102517704D01*
X148500540Y-102522296D01*
X148336490Y-103342086D01*
X148331506Y-103349526D01*
X148322721Y-103351262D01*
X148279012Y-103342086D01*
X146825629Y-103036951D01*
X146818236Y-103031898D01*
X146816333Y-103025501D01*
X146816333Y-102292962D01*
X146819760Y-102284689D01*
X146823737Y-102282079D01*
X148321153Y-101691468D01*
X148330107Y-101691620D01*
G37*
%TD.AperFunction*%
%TD*%
%TA.AperFunction,Conductor*%
%TO.N,GPIO23*%
G36*
X143048746Y-59102643D02*
G01*
X143055821Y-59108132D01*
X143057358Y-59113928D01*
X143057358Y-59846071D01*
X143053931Y-59854344D01*
X143048746Y-59857356D01*
X141706295Y-60224720D01*
X141697411Y-60223598D01*
X141692545Y-60218252D01*
X141361176Y-59484817D01*
X141360892Y-59475867D01*
X141361176Y-59475183D01*
X141524393Y-59113928D01*
X141692545Y-58741746D01*
X141699074Y-58735618D01*
X141706295Y-58735279D01*
X143048746Y-59102643D01*
G37*
%TD.AperFunction*%
%TD*%
%TA.AperFunction,Conductor*%
%TO.N,+5V*%
G36*
X133998675Y-76608799D02*
G01*
X134001876Y-76614786D01*
X134282343Y-78022464D01*
X134280599Y-78031247D01*
X134273166Y-78036222D01*
X133502297Y-78190540D01*
X133497703Y-78190540D01*
X132726833Y-78036222D01*
X132719394Y-78031238D01*
X132717656Y-78022464D01*
X132998124Y-76614786D01*
X133003101Y-76607342D01*
X133009598Y-76605372D01*
X133990402Y-76605372D01*
X133998675Y-76608799D01*
G37*
%TD.AperFunction*%
%TD*%
%TA.AperFunction,Conductor*%
%TO.N,POWER_SEL*%
G36*
X166403354Y-64653428D02*
G01*
X166406623Y-64659787D01*
X166579042Y-65699558D01*
X166577015Y-65708280D01*
X166575956Y-65709558D01*
X165588456Y-66742157D01*
X165580261Y-66745768D01*
X165571914Y-66742527D01*
X165571544Y-66742157D01*
X164584043Y-65709558D01*
X164580802Y-65701211D01*
X164580957Y-65699558D01*
X164753377Y-64659787D01*
X164758111Y-64652186D01*
X164764919Y-64650001D01*
X166395081Y-64650001D01*
X166403354Y-64653428D01*
G37*
%TD.AperFunction*%
%TD*%
%TA.AperFunction,Conductor*%
%TO.N,+5V*%
G36*
X110331343Y-101610464D02*
G01*
X110336466Y-101617808D01*
X110336512Y-101618024D01*
X110500540Y-102437704D01*
X110500540Y-102442296D01*
X110336512Y-103261975D01*
X110331528Y-103269415D01*
X110322743Y-103271152D01*
X110322527Y-103271106D01*
X108825521Y-102942019D01*
X108818177Y-102936896D01*
X108816333Y-102930592D01*
X108816333Y-101949407D01*
X108819760Y-101941134D01*
X108825520Y-101937980D01*
X110322527Y-101608893D01*
X110331343Y-101610464D01*
G37*
%TD.AperFunction*%
%TD*%
%TA.AperFunction,Conductor*%
%TO.N,GPIO10*%
G36*
X110678558Y-96530851D02*
G01*
X112175880Y-97062236D01*
X112182531Y-97068232D01*
X112183667Y-97073262D01*
X112183667Y-97805860D01*
X112180240Y-97814133D01*
X112174799Y-97817212D01*
X110677725Y-98190698D01*
X110668868Y-98189376D01*
X110663541Y-98182178D01*
X110663425Y-98181667D01*
X110499459Y-97362293D01*
X110499459Y-97357704D01*
X110663176Y-96539580D01*
X110668159Y-96532142D01*
X110676944Y-96530405D01*
X110678558Y-96530851D01*
G37*
%TD.AperFunction*%
%TD*%
%TA.AperFunction,Conductor*%
%TO.N,TX*%
G36*
X143048746Y-64182643D02*
G01*
X143055821Y-64188132D01*
X143057358Y-64193928D01*
X143057358Y-64926071D01*
X143053931Y-64934344D01*
X143048746Y-64937356D01*
X141706295Y-65304720D01*
X141697411Y-65303598D01*
X141692545Y-65298252D01*
X141361176Y-64564817D01*
X141360892Y-64555867D01*
X141361176Y-64555183D01*
X141524393Y-64193928D01*
X141692545Y-63821746D01*
X141699074Y-63815618D01*
X141706295Y-63815279D01*
X143048746Y-64182643D01*
G37*
%TD.AperFunction*%
%TD*%
%TA.AperFunction,Conductor*%
%TO.N,GPIO26*%
G36*
X125736505Y-47423355D02*
G01*
X126382719Y-47856004D01*
X126469854Y-47914343D01*
X126474822Y-47921793D01*
X126473868Y-47929179D01*
X125858200Y-49196121D01*
X125851502Y-49202064D01*
X125847677Y-49202707D01*
X125612323Y-49202707D01*
X125604050Y-49199280D01*
X125601800Y-49196121D01*
X124986131Y-47929179D01*
X124985597Y-47920240D01*
X124990144Y-47914344D01*
X125723492Y-47423356D01*
X125732272Y-47421602D01*
X125736505Y-47423355D01*
G37*
%TD.AperFunction*%
%TD*%
%TA.AperFunction,Conductor*%
%TO.N,Net-(D4-A)*%
G36*
X103547705Y-61000949D02*
G01*
X104571918Y-61992201D01*
X104575479Y-62000416D01*
X104572188Y-62008744D01*
X104571819Y-62009109D01*
X103536631Y-62987822D01*
X103528265Y-62991015D01*
X103523638Y-62989919D01*
X102147426Y-62346480D01*
X102141383Y-62339871D01*
X102141782Y-62330926D01*
X102144105Y-62327611D01*
X102839239Y-61632477D01*
X102839583Y-61632149D01*
X103531683Y-61000712D01*
X103540104Y-60997668D01*
X103547705Y-61000949D01*
G37*
%TD.AperFunction*%
%TD*%
%TA.AperFunction,Conductor*%
%TO.N,GPIO5*%
G36*
X143048746Y-79422643D02*
G01*
X143055821Y-79428132D01*
X143057358Y-79433928D01*
X143057358Y-80166071D01*
X143053931Y-80174344D01*
X143048746Y-80177356D01*
X141706295Y-80544720D01*
X141697411Y-80543598D01*
X141692545Y-80538252D01*
X141361176Y-79804817D01*
X141360892Y-79795867D01*
X141361176Y-79795183D01*
X141524393Y-79433928D01*
X141692545Y-79061746D01*
X141699074Y-79055618D01*
X141706295Y-79055279D01*
X143048746Y-79422643D01*
G37*
%TD.AperFunction*%
%TD*%
%TA.AperFunction,Conductor*%
%TO.N,TX*%
G36*
X148330107Y-63591620D02*
G01*
X148336330Y-63598059D01*
X148336919Y-63600056D01*
X148500540Y-64417704D01*
X148500540Y-64422296D01*
X148336490Y-65242086D01*
X148331506Y-65249526D01*
X148322721Y-65251262D01*
X148279012Y-65242086D01*
X146825629Y-64936951D01*
X146818236Y-64931898D01*
X146816333Y-64925501D01*
X146816333Y-64192962D01*
X146819760Y-64184689D01*
X146823737Y-64182079D01*
X148321153Y-63591468D01*
X148330107Y-63591620D01*
G37*
%TD.AperFunction*%
%TD*%
%TA.AperFunction,Conductor*%
%TO.N,GPIO12*%
G36*
X116338913Y-49258858D02*
G01*
X116497981Y-49495243D01*
X116499757Y-49504020D01*
X116499745Y-49504079D01*
X116444076Y-49781272D01*
X116439087Y-49788708D01*
X116430301Y-49790439D01*
X116428922Y-49790073D01*
X116024383Y-49655895D01*
X116019793Y-49653063D01*
X115856792Y-49490062D01*
X115853365Y-49481789D01*
X115856792Y-49473516D01*
X115860115Y-49471188D01*
X116324262Y-49254785D01*
X116333208Y-49254396D01*
X116338913Y-49258858D01*
G37*
%TD.AperFunction*%
%TD*%
%TA.AperFunction,Conductor*%
%TO.N,GPIO21*%
G36*
X148330107Y-68671620D02*
G01*
X148336330Y-68678059D01*
X148336919Y-68680056D01*
X148500540Y-69497704D01*
X148500540Y-69502296D01*
X148336490Y-70322086D01*
X148331506Y-70329526D01*
X148322721Y-70331262D01*
X148279012Y-70322086D01*
X146825629Y-70016951D01*
X146818236Y-70011898D01*
X146816333Y-70005501D01*
X146816333Y-69272962D01*
X146819760Y-69264689D01*
X146823737Y-69262079D01*
X148321153Y-68671468D01*
X148330107Y-68671620D01*
G37*
%TD.AperFunction*%
%TD*%
%TA.AperFunction,Conductor*%
%TO.N,GPIO25*%
G36*
X118163163Y-76516148D02*
G01*
X118167062Y-76520879D01*
X118498700Y-77254909D01*
X118498984Y-77263859D01*
X118498488Y-77264988D01*
X118136094Y-77984727D01*
X118129313Y-77990575D01*
X118121530Y-77990418D01*
X116810228Y-77497849D01*
X116803688Y-77491732D01*
X116802642Y-77486896D01*
X116802642Y-76754871D01*
X116806069Y-76746598D01*
X116812372Y-76743338D01*
X118154432Y-76514163D01*
X118163163Y-76516148D01*
G37*
%TD.AperFunction*%
%TD*%
%TA.AperFunction,Conductor*%
%TO.N,GPIO16*%
G36*
X143048746Y-84502643D02*
G01*
X143055821Y-84508132D01*
X143057358Y-84513928D01*
X143057358Y-85246071D01*
X143053931Y-85254344D01*
X143048746Y-85257356D01*
X141706295Y-85624720D01*
X141697411Y-85623598D01*
X141692545Y-85618252D01*
X141361176Y-84884817D01*
X141360892Y-84875867D01*
X141361176Y-84875183D01*
X141524393Y-84513928D01*
X141692545Y-84141746D01*
X141699074Y-84135618D01*
X141706295Y-84135279D01*
X143048746Y-84502643D01*
G37*
%TD.AperFunction*%
%TD*%
%TA.AperFunction,Conductor*%
%TO.N,GPIO33*%
G36*
X118163163Y-73976148D02*
G01*
X118167062Y-73980879D01*
X118498700Y-74714909D01*
X118498984Y-74723859D01*
X118498488Y-74724988D01*
X118136094Y-75444727D01*
X118129313Y-75450575D01*
X118121530Y-75450418D01*
X116810228Y-74957849D01*
X116803688Y-74951732D01*
X116802642Y-74946896D01*
X116802642Y-74214871D01*
X116806069Y-74206598D01*
X116812372Y-74203338D01*
X118154432Y-73974163D01*
X118163163Y-73976148D01*
G37*
%TD.AperFunction*%
%TD*%
%TA.AperFunction,Conductor*%
%TO.N,GPIO39*%
G36*
X118163163Y-63816148D02*
G01*
X118167062Y-63820879D01*
X118498700Y-64554909D01*
X118498984Y-64563859D01*
X118498488Y-64564988D01*
X118136094Y-65284727D01*
X118129313Y-65290575D01*
X118121530Y-65290418D01*
X116810228Y-64797849D01*
X116803688Y-64791732D01*
X116802642Y-64786896D01*
X116802642Y-64054871D01*
X116806069Y-64046598D01*
X116812372Y-64043338D01*
X118154432Y-63814163D01*
X118163163Y-63816148D01*
G37*
%TD.AperFunction*%
%TD*%
%TA.AperFunction,Conductor*%
%TO.N,GPIO15*%
G36*
X143048746Y-94662643D02*
G01*
X143055821Y-94668132D01*
X143057358Y-94673928D01*
X143057358Y-95406071D01*
X143053931Y-95414344D01*
X143048746Y-95417356D01*
X141706295Y-95784720D01*
X141697411Y-95783598D01*
X141692545Y-95778252D01*
X141361176Y-95044817D01*
X141360892Y-95035867D01*
X141361176Y-95035183D01*
X141524393Y-94673928D01*
X141692545Y-94301746D01*
X141699074Y-94295618D01*
X141706295Y-94295279D01*
X143048746Y-94662643D01*
G37*
%TD.AperFunction*%
%TD*%
%TA.AperFunction,Conductor*%
%TO.N,GPIO35*%
G36*
X118163163Y-68896148D02*
G01*
X118167062Y-68900879D01*
X118498700Y-69634909D01*
X118498984Y-69643859D01*
X118498488Y-69644988D01*
X118136094Y-70364727D01*
X118129313Y-70370575D01*
X118121530Y-70370418D01*
X116810228Y-69877849D01*
X116803688Y-69871732D01*
X116802642Y-69866896D01*
X116802642Y-69134871D01*
X116806069Y-69126598D01*
X116812372Y-69123338D01*
X118154432Y-68894163D01*
X118163163Y-68896148D01*
G37*
%TD.AperFunction*%
%TD*%
%TA.AperFunction,Conductor*%
%TO.N,GPIO23*%
G36*
X148330107Y-58511620D02*
G01*
X148336330Y-58518059D01*
X148336919Y-58520056D01*
X148500540Y-59337704D01*
X148500540Y-59342296D01*
X148336490Y-60162086D01*
X148331506Y-60169526D01*
X148322721Y-60171262D01*
X148279012Y-60162086D01*
X146825629Y-59856951D01*
X146818236Y-59851898D01*
X146816333Y-59845501D01*
X146816333Y-59112962D01*
X146819760Y-59104689D01*
X146823737Y-59102079D01*
X148321153Y-58511468D01*
X148330107Y-58511620D01*
G37*
%TD.AperFunction*%
%TD*%
%TA.AperFunction,Conductor*%
%TO.N,GPIO22*%
G36*
X148330107Y-61051620D02*
G01*
X148336330Y-61058059D01*
X148336919Y-61060056D01*
X148500540Y-61877704D01*
X148500540Y-61882296D01*
X148336490Y-62702086D01*
X148331506Y-62709526D01*
X148322721Y-62711262D01*
X148279012Y-62702086D01*
X146825629Y-62396951D01*
X146818236Y-62391898D01*
X146816333Y-62385501D01*
X146816333Y-61652962D01*
X146819760Y-61644689D01*
X146823737Y-61642079D01*
X148321153Y-61051468D01*
X148330107Y-61051620D01*
G37*
%TD.AperFunction*%
%TD*%
%TA.AperFunction,Conductor*%
%TO.N,GPIO21*%
G36*
X143048746Y-69262643D02*
G01*
X143055821Y-69268132D01*
X143057358Y-69273928D01*
X143057358Y-70006071D01*
X143053931Y-70014344D01*
X143048746Y-70017356D01*
X141706295Y-70384720D01*
X141697411Y-70383598D01*
X141692545Y-70378252D01*
X141361176Y-69644817D01*
X141360892Y-69635867D01*
X141361176Y-69635183D01*
X141524393Y-69273928D01*
X141692545Y-68901746D01*
X141699074Y-68895618D01*
X141706295Y-68895279D01*
X143048746Y-69262643D01*
G37*
%TD.AperFunction*%
%TD*%
%TA.AperFunction,Conductor*%
%TO.N,GPIO19*%
G36*
X143048746Y-74342643D02*
G01*
X143055821Y-74348132D01*
X143057358Y-74353928D01*
X143057358Y-75086071D01*
X143053931Y-75094344D01*
X143048746Y-75097356D01*
X141706295Y-75464720D01*
X141697411Y-75463598D01*
X141692545Y-75458252D01*
X141361176Y-74724817D01*
X141360892Y-74715867D01*
X141361176Y-74715183D01*
X141524393Y-74353928D01*
X141692545Y-73981746D01*
X141699074Y-73975618D01*
X141706295Y-73975279D01*
X143048746Y-74342643D01*
G37*
%TD.AperFunction*%
%TD*%
%TA.AperFunction,Conductor*%
%TO.N,GPIO32*%
G36*
X118163163Y-71436148D02*
G01*
X118167062Y-71440879D01*
X118498700Y-72174909D01*
X118498984Y-72183859D01*
X118498488Y-72184988D01*
X118136094Y-72904727D01*
X118129313Y-72910575D01*
X118121530Y-72910418D01*
X116810228Y-72417849D01*
X116803688Y-72411732D01*
X116802642Y-72406896D01*
X116802642Y-71674871D01*
X116806069Y-71666598D01*
X116812372Y-71663338D01*
X118154432Y-71434163D01*
X118163163Y-71436148D01*
G37*
%TD.AperFunction*%
%TD*%
%TA.AperFunction,Conductor*%
%TO.N,Net-(D3-A)*%
G36*
X105080870Y-55403428D02*
G01*
X105083170Y-55406692D01*
X105576552Y-56448054D01*
X105576998Y-56456997D01*
X105574435Y-56461149D01*
X104588456Y-57492157D01*
X104580261Y-57495768D01*
X104571914Y-57492527D01*
X104571544Y-57492157D01*
X103585564Y-56461149D01*
X103582323Y-56452802D01*
X103583446Y-56448057D01*
X104076830Y-55406692D01*
X104083469Y-55400682D01*
X104087403Y-55400001D01*
X105072597Y-55400001D01*
X105080870Y-55403428D01*
G37*
%TD.AperFunction*%
%TD*%
%TA.AperFunction,Conductor*%
%TO.N,GND*%
G36*
X141859153Y-55419427D02*
G01*
X141862226Y-55424845D01*
X142119936Y-56448875D01*
X142118632Y-56457734D01*
X142114862Y-56461607D01*
X141366272Y-56937016D01*
X141357451Y-56938558D01*
X141353728Y-56937016D01*
X140605137Y-56461607D01*
X140599990Y-56454279D01*
X140600062Y-56448877D01*
X140857774Y-55424844D01*
X140863116Y-55417658D01*
X140869120Y-55416000D01*
X141850880Y-55416000D01*
X141859153Y-55419427D01*
G37*
%TD.AperFunction*%
%TD*%
%TA.AperFunction,Conductor*%
%TO.N,Net-(D5-A)*%
G36*
X156168190Y-55424563D02*
G01*
X156171489Y-55431108D01*
X156418640Y-57085900D01*
X156416472Y-57094588D01*
X156411469Y-57098469D01*
X155424401Y-57499213D01*
X155415599Y-57499213D01*
X154428530Y-57098469D01*
X154422153Y-57092181D01*
X154421359Y-57085903D01*
X154668511Y-55431108D01*
X154673123Y-55423432D01*
X154680083Y-55421136D01*
X156159917Y-55421136D01*
X156168190Y-55424563D01*
G37*
%TD.AperFunction*%
%TD*%
%TA.AperFunction,Conductor*%
%TO.N,+3V3*%
G36*
X111357655Y-55913730D02*
G01*
X112194371Y-56421583D01*
X112199665Y-56428805D01*
X112200000Y-56431585D01*
X112200000Y-57167535D01*
X112196573Y-57175808D01*
X112193231Y-57178145D01*
X111357414Y-57566554D01*
X111348467Y-57566933D01*
X111344215Y-57564222D01*
X110947061Y-57167535D01*
X110507484Y-56728474D01*
X110504052Y-56720203D01*
X110507474Y-56711928D01*
X110507598Y-56711806D01*
X111343515Y-55915262D01*
X111351868Y-55912036D01*
X111357655Y-55913730D01*
G37*
%TD.AperFunction*%
%TD*%
%TA.AperFunction,Conductor*%
%TO.N,Net-(D2-A)*%
G36*
X151754385Y-43545557D02*
G01*
X151757447Y-43549428D01*
X152433343Y-44924914D01*
X152433916Y-44933851D01*
X152431115Y-44938347D01*
X151735847Y-45633615D01*
X151727574Y-45637042D01*
X151722415Y-45635843D01*
X151183207Y-45370884D01*
X150346928Y-44959947D01*
X150341014Y-44953223D01*
X150340442Y-44948324D01*
X150463366Y-43676383D01*
X150467572Y-43668480D01*
X150473883Y-43665866D01*
X151745822Y-43542942D01*
X151754385Y-43545557D01*
G37*
%TD.AperFunction*%
%TD*%
%TA.AperFunction,Conductor*%
%TO.N,+3V3*%
G36*
X118163163Y-56196148D02*
G01*
X118167062Y-56200879D01*
X118498700Y-56934909D01*
X118498984Y-56943859D01*
X118498488Y-56944988D01*
X118136094Y-57664727D01*
X118129313Y-57670575D01*
X118121530Y-57670418D01*
X116810228Y-57177849D01*
X116803688Y-57171732D01*
X116802642Y-57166896D01*
X116802642Y-56434871D01*
X116806069Y-56426598D01*
X116812372Y-56423338D01*
X118154432Y-56194163D01*
X118163163Y-56196148D01*
G37*
%TD.AperFunction*%
%TD*%
%TA.AperFunction,Conductor*%
%TO.N,POWER_SEL*%
G36*
X165508393Y-62007165D02*
G01*
X165508742Y-62007490D01*
X166534983Y-63004201D01*
X166538530Y-63012423D01*
X166538444Y-63014021D01*
X166406262Y-64089726D01*
X166401851Y-64097519D01*
X166394649Y-64099999D01*
X164764509Y-64099999D01*
X164756236Y-64096572D01*
X164753056Y-64090692D01*
X164541320Y-63077258D01*
X164542983Y-63068459D01*
X164544047Y-63067071D01*
X165491874Y-62008079D01*
X165499943Y-62004201D01*
X165508393Y-62007165D01*
G37*
%TD.AperFunction*%
%TD*%
%TA.AperFunction,Conductor*%
%TO.N,GPIO13*%
G36*
X109404797Y-91003516D02*
G01*
X110656257Y-91442972D01*
X110662928Y-91448946D01*
X110663858Y-91456282D01*
X110502227Y-92273021D01*
X110497260Y-92280472D01*
X110493021Y-92282227D01*
X109676282Y-92443858D01*
X109667501Y-92442103D01*
X109662972Y-92436257D01*
X109608267Y-92280472D01*
X109223517Y-91184798D01*
X109224009Y-91175859D01*
X109226280Y-91172654D01*
X109392652Y-91006282D01*
X109400924Y-91002856D01*
X109404797Y-91003516D01*
G37*
%TD.AperFunction*%
%TD*%
%TA.AperFunction,Conductor*%
%TO.N,GPIO14*%
G36*
X133356505Y-47423355D02*
G01*
X134002719Y-47856004D01*
X134089854Y-47914343D01*
X134094822Y-47921793D01*
X134093868Y-47929179D01*
X133478200Y-49196121D01*
X133471502Y-49202064D01*
X133467677Y-49202707D01*
X133232323Y-49202707D01*
X133224050Y-49199280D01*
X133221800Y-49196121D01*
X132606131Y-47929179D01*
X132605597Y-47920240D01*
X132610144Y-47914344D01*
X133343492Y-47423356D01*
X133352272Y-47421602D01*
X133356505Y-47423355D01*
G37*
%TD.AperFunction*%
%TD*%
%TA.AperFunction,Conductor*%
%TO.N,GPIO12*%
G36*
X118163163Y-86676148D02*
G01*
X118167062Y-86680879D01*
X118498700Y-87414909D01*
X118498984Y-87423859D01*
X118498488Y-87424988D01*
X118136094Y-88144727D01*
X118129313Y-88150575D01*
X118121530Y-88150418D01*
X116810228Y-87657849D01*
X116803688Y-87651732D01*
X116802642Y-87646896D01*
X116802642Y-86914871D01*
X116806069Y-86906598D01*
X116812372Y-86903338D01*
X118154432Y-86674163D01*
X118163163Y-86676148D01*
G37*
%TD.AperFunction*%
%TD*%
%TA.AperFunction,Conductor*%
%TO.N,GPIO14*%
G36*
X119908529Y-84410812D02*
G01*
X119913863Y-84413864D01*
X120079885Y-84579886D01*
X120083312Y-84588159D01*
X120079885Y-84596432D01*
X120079656Y-84596655D01*
X119122399Y-85502970D01*
X119114035Y-85506170D01*
X119105980Y-85502644D01*
X118504862Y-84886416D01*
X118501538Y-84878101D01*
X118502569Y-84873440D01*
X118832603Y-84141634D01*
X118839129Y-84135502D01*
X118846207Y-84135120D01*
X119908529Y-84410812D01*
G37*
%TD.AperFunction*%
%TD*%
%TA.AperFunction,Conductor*%
%TO.N,RX*%
G36*
X143048746Y-66722643D02*
G01*
X143055821Y-66728132D01*
X143057358Y-66733928D01*
X143057358Y-67466071D01*
X143053931Y-67474344D01*
X143048746Y-67477356D01*
X141706295Y-67844720D01*
X141697411Y-67843598D01*
X141692545Y-67838252D01*
X141361176Y-67104817D01*
X141360892Y-67095867D01*
X141361176Y-67095183D01*
X141524393Y-66733928D01*
X141692545Y-66361746D01*
X141699074Y-66355618D01*
X141706295Y-66355279D01*
X143048746Y-66722643D01*
G37*
%TD.AperFunction*%
%TD*%
%TA.AperFunction,Conductor*%
%TO.N,+5V*%
G36*
X118310616Y-101901549D02*
G01*
X118314392Y-101907645D01*
X118499956Y-102655792D01*
X118499050Y-102663871D01*
X118135705Y-103385500D01*
X118128924Y-103391348D01*
X118122084Y-103391500D01*
X116811171Y-103022401D01*
X116804136Y-103016860D01*
X116802642Y-103011139D01*
X116802642Y-102030792D01*
X116806069Y-102022519D01*
X116813397Y-102019130D01*
X118302094Y-101898800D01*
X118310616Y-101901549D01*
G37*
%TD.AperFunction*%
%TD*%
%TA.AperFunction,Conductor*%
%TO.N,Net-(D4-A)*%
G36*
X103456114Y-44165865D02*
G01*
X103464019Y-44170072D01*
X103466634Y-44176386D01*
X103589557Y-45448321D01*
X103586942Y-45456885D01*
X103583071Y-45459947D01*
X102207585Y-46135843D01*
X102198648Y-46136416D01*
X102194152Y-46133615D01*
X101498884Y-45438347D01*
X101495457Y-45430074D01*
X101496654Y-45424918D01*
X102172552Y-44049428D01*
X102179276Y-44043515D01*
X102184175Y-44042943D01*
X103456114Y-44165865D01*
G37*
%TD.AperFunction*%
%TD*%
%TA.AperFunction,Conductor*%
%TO.N,GPIO0*%
G36*
X148330107Y-88991620D02*
G01*
X148336330Y-88998059D01*
X148336919Y-89000056D01*
X148500540Y-89817704D01*
X148500540Y-89822296D01*
X148336490Y-90642086D01*
X148331506Y-90649526D01*
X148322721Y-90651262D01*
X148279012Y-90642086D01*
X146825629Y-90336951D01*
X146818236Y-90331898D01*
X146816333Y-90325501D01*
X146816333Y-89592962D01*
X146819760Y-89584689D01*
X146823737Y-89582079D01*
X148321153Y-88991468D01*
X148330107Y-88991620D01*
G37*
%TD.AperFunction*%
%TD*%
%TA.AperFunction,Conductor*%
%TO.N,Net-(D10-A)*%
G36*
X126669640Y-85566630D02*
G01*
X126670683Y-85568565D01*
X127169491Y-86747815D01*
X127170415Y-86752373D01*
X127170415Y-87233496D01*
X127166988Y-87241769D01*
X127158715Y-87245196D01*
X127154842Y-87244536D01*
X125853499Y-86787985D01*
X125846827Y-86782013D01*
X125845894Y-86774679D01*
X125998058Y-86004765D01*
X126003021Y-85997316D01*
X126653416Y-85563389D01*
X126662198Y-85561649D01*
X126669640Y-85566630D01*
G37*
%TD.AperFunction*%
%TD*%
%TA.AperFunction,Conductor*%
%TO.N,GPIO33*%
G36*
X110678558Y-73670851D02*
G01*
X112175880Y-74202236D01*
X112182531Y-74208232D01*
X112183667Y-74213262D01*
X112183667Y-74945860D01*
X112180240Y-74954133D01*
X112174799Y-74957212D01*
X110677725Y-75330698D01*
X110668868Y-75329376D01*
X110663541Y-75322178D01*
X110663425Y-75321667D01*
X110499459Y-74502293D01*
X110499459Y-74497704D01*
X110663176Y-73679580D01*
X110668159Y-73672142D01*
X110676944Y-73670405D01*
X110678558Y-73670851D01*
G37*
%TD.AperFunction*%
%TD*%
%TA.AperFunction,Conductor*%
%TO.N,GPIO12*%
G36*
X109404797Y-85923516D02*
G01*
X110656257Y-86362972D01*
X110662928Y-86368946D01*
X110663858Y-86376282D01*
X110502227Y-87193021D01*
X110497260Y-87200472D01*
X110493021Y-87202227D01*
X109676282Y-87363858D01*
X109667501Y-87362103D01*
X109662972Y-87356257D01*
X109608267Y-87200472D01*
X109223517Y-86104798D01*
X109224009Y-86095859D01*
X109226280Y-86092654D01*
X109392652Y-85926282D01*
X109400924Y-85922856D01*
X109404797Y-85923516D01*
G37*
%TD.AperFunction*%
%TD*%
%TA.AperFunction,Conductor*%
%TO.N,GPIO2*%
G36*
X148330107Y-91531620D02*
G01*
X148336330Y-91538059D01*
X148336919Y-91540056D01*
X148500540Y-92357704D01*
X148500540Y-92362296D01*
X148336490Y-93182086D01*
X148331506Y-93189526D01*
X148322721Y-93191262D01*
X148279012Y-93182086D01*
X146825629Y-92876951D01*
X146818236Y-92871898D01*
X146816333Y-92865501D01*
X146816333Y-92132962D01*
X146819760Y-92124689D01*
X146823737Y-92122079D01*
X148321153Y-91531468D01*
X148330107Y-91531620D01*
G37*
%TD.AperFunction*%
%TD*%
%TA.AperFunction,Conductor*%
%TO.N,GPIO35*%
G36*
X110678558Y-68590851D02*
G01*
X112175880Y-69122236D01*
X112182531Y-69128232D01*
X112183667Y-69133262D01*
X112183667Y-69865860D01*
X112180240Y-69874133D01*
X112174799Y-69877212D01*
X110677725Y-70250698D01*
X110668868Y-70249376D01*
X110663541Y-70242178D01*
X110663425Y-70241667D01*
X110499459Y-69422293D01*
X110499459Y-69417704D01*
X110663176Y-68599580D01*
X110668159Y-68592142D01*
X110676944Y-68590405D01*
X110678558Y-68590851D01*
G37*
%TD.AperFunction*%
%TD*%
%TA.AperFunction,Conductor*%
%TO.N,GND*%
G36*
X110678558Y-88910851D02*
G01*
X112175880Y-89442236D01*
X112182531Y-89448232D01*
X112183667Y-89453262D01*
X112183667Y-90185860D01*
X112180240Y-90194133D01*
X112174799Y-90197212D01*
X110677725Y-90570698D01*
X110668868Y-90569376D01*
X110663541Y-90562178D01*
X110663425Y-90561667D01*
X110499459Y-89742293D01*
X110499459Y-89737704D01*
X110663176Y-88919580D01*
X110668159Y-88912142D01*
X110676944Y-88910405D01*
X110678558Y-88910851D01*
G37*
%TD.AperFunction*%
%TD*%
%TA.AperFunction,Conductor*%
%TO.N,EN*%
G36*
X118163163Y-58736148D02*
G01*
X118167062Y-58740879D01*
X118498700Y-59474909D01*
X118498984Y-59483859D01*
X118498488Y-59484988D01*
X118136094Y-60204727D01*
X118129313Y-60210575D01*
X118121530Y-60210418D01*
X116810228Y-59717849D01*
X116803688Y-59711732D01*
X116802642Y-59706896D01*
X116802642Y-58974871D01*
X116806069Y-58966598D01*
X116812372Y-58963338D01*
X118154432Y-58734163D01*
X118163163Y-58736148D01*
G37*
%TD.AperFunction*%
%TD*%
%TA.AperFunction,Conductor*%
%TO.N,GND*%
G36*
X139184451Y-46929962D02*
G01*
X139184681Y-46930320D01*
X139950383Y-48174681D01*
X140039274Y-48319139D01*
X140040691Y-48327981D01*
X140037582Y-48333544D01*
X139343544Y-49027582D01*
X139335271Y-49031009D01*
X139329139Y-49029274D01*
X137940320Y-48174681D01*
X137935070Y-48167426D01*
X137936487Y-48158584D01*
X137936698Y-48158254D01*
X138427995Y-47421239D01*
X138431240Y-47417995D01*
X139168227Y-46926716D01*
X139177011Y-46924979D01*
X139184451Y-46929962D01*
G37*
%TD.AperFunction*%
%TD*%
%TA.AperFunction,Conductor*%
%TO.N,+5V*%
G36*
X102079185Y-82569229D02*
G01*
X102082248Y-82574608D01*
X102511291Y-84255292D01*
X102510017Y-84264156D01*
X102502849Y-84269522D01*
X102502802Y-84269534D01*
X101582847Y-84500285D01*
X101577153Y-84500285D01*
X100657197Y-84269534D01*
X100650007Y-84264198D01*
X100648696Y-84255339D01*
X100648708Y-84255292D01*
X101077752Y-82574608D01*
X101083118Y-82567440D01*
X101089088Y-82565802D01*
X102070912Y-82565802D01*
X102079185Y-82569229D01*
G37*
%TD.AperFunction*%
%TD*%
%TA.AperFunction,Conductor*%
%TO.N,POWER_SEL*%
G36*
X165588086Y-71007472D02*
G01*
X165588456Y-71007842D01*
X166575956Y-72040440D01*
X166579197Y-72048787D01*
X166579042Y-72050440D01*
X166406623Y-73090213D01*
X166401889Y-73097814D01*
X166395081Y-73099999D01*
X164764919Y-73099999D01*
X164756646Y-73096572D01*
X164753377Y-73090213D01*
X164580957Y-72050440D01*
X164582984Y-72041718D01*
X164584043Y-72040440D01*
X165571544Y-71007842D01*
X165579739Y-71004231D01*
X165588086Y-71007472D01*
G37*
%TD.AperFunction*%
%TD*%
%TA.AperFunction,Conductor*%
%TO.N,Net-(D5-A)*%
G36*
X121741458Y-41461520D02*
G01*
X121746708Y-41468775D01*
X121746799Y-41469190D01*
X121920540Y-42337705D01*
X121920540Y-42342295D01*
X121746799Y-43210809D01*
X121741816Y-43218249D01*
X121733031Y-43219987D01*
X121732616Y-43219896D01*
X120146283Y-42842140D01*
X120139028Y-42836890D01*
X120137293Y-42830758D01*
X120137293Y-41849241D01*
X120140720Y-41840968D01*
X120146282Y-41837859D01*
X121732617Y-41460103D01*
X121741458Y-41461520D01*
G37*
%TD.AperFunction*%
%TD*%
%TA.AperFunction,Conductor*%
%TO.N,RX*%
G36*
X148330107Y-66131620D02*
G01*
X148336330Y-66138059D01*
X148336919Y-66140056D01*
X148500540Y-66957704D01*
X148500540Y-66962296D01*
X148336490Y-67782086D01*
X148331506Y-67789526D01*
X148322721Y-67791262D01*
X148279012Y-67782086D01*
X146825629Y-67476951D01*
X146818236Y-67471898D01*
X146816333Y-67465501D01*
X146816333Y-66732962D01*
X146819760Y-66724689D01*
X146823737Y-66722079D01*
X148321153Y-66131468D01*
X148330107Y-66131620D01*
G37*
%TD.AperFunction*%
%TD*%
%TA.AperFunction,Conductor*%
%TO.N,GND*%
G36*
X119757045Y-46527037D02*
G01*
X120642712Y-47411722D01*
X120646143Y-47419994D01*
X120642721Y-47428269D01*
X120642712Y-47428278D01*
X119757045Y-48312962D01*
X119748770Y-48316384D01*
X119741926Y-48314169D01*
X118854850Y-47673502D01*
X118850149Y-47665880D01*
X118850000Y-47664017D01*
X118850000Y-47175982D01*
X118853427Y-47167709D01*
X118854850Y-47166497D01*
X119741928Y-46525829D01*
X119750639Y-46523764D01*
X119757045Y-46527037D01*
G37*
%TD.AperFunction*%
%TD*%
%TA.AperFunction,Conductor*%
%TO.N,GPIO39*%
G36*
X110678558Y-63510851D02*
G01*
X112175880Y-64042236D01*
X112182531Y-64048232D01*
X112183667Y-64053262D01*
X112183667Y-64785860D01*
X112180240Y-64794133D01*
X112174799Y-64797212D01*
X110677725Y-65170698D01*
X110668868Y-65169376D01*
X110663541Y-65162178D01*
X110663425Y-65161667D01*
X110499459Y-64342293D01*
X110499459Y-64337704D01*
X110663176Y-63519580D01*
X110668159Y-63512142D01*
X110676944Y-63510405D01*
X110678558Y-63510851D01*
G37*
%TD.AperFunction*%
%TD*%
%TA.AperFunction,Conductor*%
%TO.N,POWER_SEL*%
G36*
X165587802Y-57507731D02*
G01*
X165588122Y-57508075D01*
X166480747Y-58505393D01*
X166535943Y-58567062D01*
X166538907Y-58575512D01*
X166538678Y-58577258D01*
X166326944Y-59590693D01*
X166321897Y-59598090D01*
X166315491Y-59600000D01*
X164685351Y-59600000D01*
X164677078Y-59596573D01*
X164673738Y-59589727D01*
X164541554Y-58514022D01*
X164543947Y-58505393D01*
X164545008Y-58504209D01*
X165571259Y-57507489D01*
X165579580Y-57504184D01*
X165587802Y-57507731D01*
G37*
%TD.AperFunction*%
%TD*%
%TA.AperFunction,Conductor*%
%TO.N,GPIO9*%
G36*
X110678558Y-93990851D02*
G01*
X112175880Y-94522236D01*
X112182531Y-94528232D01*
X112183667Y-94533262D01*
X112183667Y-95265860D01*
X112180240Y-95274133D01*
X112174799Y-95277212D01*
X110677725Y-95650698D01*
X110668868Y-95649376D01*
X110663541Y-95642178D01*
X110663425Y-95641667D01*
X110499459Y-94822293D01*
X110499459Y-94817704D01*
X110663176Y-93999580D01*
X110668159Y-93992142D01*
X110676944Y-93990405D01*
X110678558Y-93990851D01*
G37*
%TD.AperFunction*%
%TD*%
%TA.AperFunction,Conductor*%
%TO.N,Net-(D1-A)*%
G36*
X155007211Y-79273649D02*
G01*
X155740302Y-79764641D01*
X155745269Y-79772092D01*
X155744572Y-79778907D01*
X155146263Y-81198020D01*
X155139891Y-81204312D01*
X155130937Y-81204256D01*
X155127209Y-81201748D01*
X154787332Y-80861871D01*
X154785098Y-80858746D01*
X154256177Y-79779199D01*
X154255616Y-79770264D01*
X154260181Y-79764327D01*
X154994200Y-79273642D01*
X155002980Y-79271894D01*
X155007211Y-79273649D01*
G37*
%TD.AperFunction*%
%TD*%
%TA.AperFunction,Conductor*%
%TO.N,GPIO0*%
G36*
X143048746Y-89582643D02*
G01*
X143055821Y-89588132D01*
X143057358Y-89593928D01*
X143057358Y-90326071D01*
X143053931Y-90334344D01*
X143048746Y-90337356D01*
X141706295Y-90704720D01*
X141697411Y-90703598D01*
X141692545Y-90698252D01*
X141361176Y-89964817D01*
X141360892Y-89955867D01*
X141361176Y-89955183D01*
X141524393Y-89593928D01*
X141692545Y-89221746D01*
X141699074Y-89215618D01*
X141706295Y-89215279D01*
X143048746Y-89582643D01*
G37*
%TD.AperFunction*%
%TD*%
%TA.AperFunction,Conductor*%
%TO.N,GPIO11*%
G36*
X118163163Y-99376148D02*
G01*
X118167062Y-99380879D01*
X118498700Y-100114909D01*
X118498984Y-100123859D01*
X118498488Y-100124988D01*
X118136094Y-100844727D01*
X118129313Y-100850575D01*
X118121530Y-100850418D01*
X116810228Y-100357849D01*
X116803688Y-100351732D01*
X116802642Y-100346896D01*
X116802642Y-99614871D01*
X116806069Y-99606598D01*
X116812372Y-99603338D01*
X118154432Y-99374163D01*
X118163163Y-99376148D01*
G37*
%TD.AperFunction*%
%TD*%
%TA.AperFunction,Conductor*%
%TO.N,GPIO18*%
G36*
X148330107Y-76291620D02*
G01*
X148336330Y-76298059D01*
X148336919Y-76300056D01*
X148500540Y-77117704D01*
X148500540Y-77122296D01*
X148336490Y-77942086D01*
X148331506Y-77949526D01*
X148322721Y-77951262D01*
X148279012Y-77942086D01*
X146825629Y-77636951D01*
X146818236Y-77631898D01*
X146816333Y-77625501D01*
X146816333Y-76892962D01*
X146819760Y-76884689D01*
X146823737Y-76882079D01*
X148321153Y-76291468D01*
X148330107Y-76291620D01*
G37*
%TD.AperFunction*%
%TD*%
%TA.AperFunction,Conductor*%
%TO.N,GPIO13*%
G36*
X117526483Y-48856792D02*
G01*
X117528814Y-48860121D01*
X117745213Y-49324262D01*
X117745603Y-49333208D01*
X117741141Y-49338913D01*
X117504756Y-49497981D01*
X117495979Y-49499757D01*
X117495920Y-49499745D01*
X117218727Y-49444076D01*
X117211291Y-49439087D01*
X117209560Y-49430301D01*
X117209922Y-49428935D01*
X117344105Y-49024380D01*
X117346934Y-49019795D01*
X117509938Y-48856791D01*
X117518210Y-48853365D01*
X117526483Y-48856792D01*
G37*
%TD.AperFunction*%
%TD*%
%TA.AperFunction,Conductor*%
%TO.N,Net-(D1-A)*%
G36*
X134271149Y-85963373D02*
G01*
X134278587Y-85968357D01*
X134280323Y-85977142D01*
X134279809Y-85978946D01*
X133752844Y-87387029D01*
X133746735Y-87393576D01*
X133741886Y-87394628D01*
X133258114Y-87394628D01*
X133249841Y-87391201D01*
X133247156Y-87387029D01*
X132720190Y-85978946D01*
X132720500Y-85969996D01*
X132727047Y-85963887D01*
X132728842Y-85963375D01*
X133497707Y-85809459D01*
X133502293Y-85809459D01*
X134271149Y-85963373D01*
G37*
%TD.AperFunction*%
%TD*%
%TA.AperFunction,Conductor*%
%TO.N,GPIO10*%
G36*
X118163163Y-96836148D02*
G01*
X118167062Y-96840879D01*
X118498700Y-97574909D01*
X118498984Y-97583859D01*
X118498488Y-97584988D01*
X118136094Y-98304727D01*
X118129313Y-98310575D01*
X118121530Y-98310418D01*
X116810228Y-97817849D01*
X116803688Y-97811732D01*
X116802642Y-97806896D01*
X116802642Y-97074871D01*
X116806069Y-97066598D01*
X116812372Y-97063338D01*
X118154432Y-96834163D01*
X118163163Y-96836148D01*
G37*
%TD.AperFunction*%
%TD*%
%TA.AperFunction,Conductor*%
%TO.N,GPIO25*%
G36*
X119881281Y-76557215D02*
G01*
X119888973Y-76560628D01*
X120055244Y-76726899D01*
X120058671Y-76735172D01*
X120056193Y-76742372D01*
X119327538Y-77675712D01*
X119319746Y-77680124D01*
X119312968Y-77678918D01*
X118507525Y-77264938D01*
X118501733Y-77258108D01*
X118501515Y-77251725D01*
X118685686Y-76507351D01*
X118690999Y-76500145D01*
X118697621Y-76498477D01*
X119881281Y-76557215D01*
G37*
%TD.AperFunction*%
%TD*%
%TA.AperFunction,Conductor*%
%TO.N,GPIO4*%
G36*
X143048746Y-87042643D02*
G01*
X143055821Y-87048132D01*
X143057358Y-87053928D01*
X143057358Y-87786071D01*
X143053931Y-87794344D01*
X143048746Y-87797356D01*
X141706295Y-88164720D01*
X141697411Y-88163598D01*
X141692545Y-88158252D01*
X141361176Y-87424817D01*
X141360892Y-87415867D01*
X141361176Y-87415183D01*
X141524393Y-87053928D01*
X141692545Y-86681746D01*
X141699074Y-86675618D01*
X141706295Y-86675279D01*
X143048746Y-87042643D01*
G37*
%TD.AperFunction*%
%TD*%
%TA.AperFunction,Conductor*%
%TO.N,Net-(SW1-A)*%
G36*
X97000878Y-82550927D02*
G01*
X97003173Y-82554179D01*
X97449050Y-83492738D01*
X97449505Y-83501682D01*
X97446958Y-83505824D01*
X96508476Y-84492092D01*
X96500290Y-84495723D01*
X96491935Y-84492503D01*
X96491524Y-84492092D01*
X96186691Y-84171737D01*
X95553040Y-83505822D01*
X95549821Y-83497469D01*
X95550948Y-83492741D01*
X95996827Y-82554178D01*
X96003472Y-82548177D01*
X96007395Y-82547500D01*
X96992605Y-82547500D01*
X97000878Y-82550927D01*
G37*
%TD.AperFunction*%
%TD*%
%TA.AperFunction,Conductor*%
%TO.N,GND*%
G36*
X118163163Y-89216148D02*
G01*
X118167062Y-89220879D01*
X118498700Y-89954909D01*
X118498984Y-89963859D01*
X118498488Y-89964988D01*
X118136094Y-90684727D01*
X118129313Y-90690575D01*
X118121530Y-90690418D01*
X116810228Y-90197849D01*
X116803688Y-90191732D01*
X116802642Y-90186896D01*
X116802642Y-89454871D01*
X116806069Y-89446598D01*
X116812372Y-89443338D01*
X118154432Y-89214163D01*
X118163163Y-89216148D01*
G37*
%TD.AperFunction*%
%TD*%
%TA.AperFunction,Conductor*%
%TO.N,Net-(D4-A)*%
G36*
X156462588Y-60182631D02*
G01*
X157157368Y-60877411D01*
X157160795Y-60885684D01*
X157159390Y-60891243D01*
X156338532Y-62411375D01*
X156331586Y-62417027D01*
X156323684Y-62416594D01*
X155343669Y-62002555D01*
X155337444Y-61996330D01*
X154923406Y-61016313D01*
X154923343Y-61007359D01*
X154928624Y-61001465D01*
X156448756Y-60180608D01*
X156457664Y-60179693D01*
X156462588Y-60182631D01*
G37*
%TD.AperFunction*%
%TD*%
%TA.AperFunction,Conductor*%
%TO.N,GPIO22*%
G36*
X143048746Y-61642643D02*
G01*
X143055821Y-61648132D01*
X143057358Y-61653928D01*
X143057358Y-62386071D01*
X143053931Y-62394344D01*
X143048746Y-62397356D01*
X141706295Y-62764720D01*
X141697411Y-62763598D01*
X141692545Y-62758252D01*
X141361176Y-62024817D01*
X141360892Y-62015867D01*
X141361176Y-62015183D01*
X141524393Y-61653928D01*
X141692545Y-61281746D01*
X141699074Y-61275618D01*
X141706295Y-61275279D01*
X143048746Y-61642643D01*
G37*
%TD.AperFunction*%
%TD*%
%TA.AperFunction,Conductor*%
%TO.N,+5V*%
G36*
X101847635Y-83550607D02*
G01*
X103476398Y-83997639D01*
X103483468Y-84003133D01*
X103485000Y-84008921D01*
X103485000Y-84991078D01*
X103481573Y-84999351D01*
X103476397Y-85002361D01*
X101847642Y-85449390D01*
X101838757Y-85448275D01*
X101833262Y-85441204D01*
X101833250Y-85441158D01*
X101579824Y-84503051D01*
X101579824Y-84496949D01*
X101711663Y-84008921D01*
X101833250Y-83558840D01*
X101838716Y-83551748D01*
X101847596Y-83550597D01*
X101847635Y-83550607D01*
G37*
%TD.AperFunction*%
%TD*%
%TA.AperFunction,Conductor*%
%TO.N,POWER_SEL*%
G36*
X166323354Y-59903428D02*
G01*
X166326623Y-59909787D01*
X166499042Y-60949558D01*
X166497015Y-60958280D01*
X166495956Y-60959558D01*
X165508456Y-61992157D01*
X165500261Y-61995768D01*
X165491914Y-61992527D01*
X165491544Y-61992157D01*
X164504043Y-60959558D01*
X164500802Y-60951211D01*
X164500957Y-60949558D01*
X164673377Y-59909787D01*
X164678111Y-59902186D01*
X164684919Y-59900001D01*
X166315081Y-59900001D01*
X166323354Y-59903428D01*
G37*
%TD.AperFunction*%
%TD*%
%TA.AperFunction,Conductor*%
%TO.N,POWER_SEL*%
G36*
X97253663Y-90002092D02*
G01*
X98983209Y-90989840D01*
X98988694Y-90996919D01*
X98987567Y-91005802D01*
X98983209Y-91010160D01*
X97253663Y-91997907D01*
X97245844Y-91999272D01*
X96259683Y-91826694D01*
X96252125Y-91821892D01*
X96250000Y-91815169D01*
X96250000Y-90184830D01*
X96253427Y-90176557D01*
X96259681Y-90173305D01*
X97245844Y-90000727D01*
X97253663Y-90002092D01*
G37*
%TD.AperFunction*%
%TD*%
%TA.AperFunction,Conductor*%
%TO.N,GPIO8*%
G36*
X148330107Y-96611620D02*
G01*
X148336330Y-96618059D01*
X148336919Y-96620056D01*
X148500540Y-97437704D01*
X148500540Y-97442296D01*
X148336490Y-98262086D01*
X148331506Y-98269526D01*
X148322721Y-98271262D01*
X148279012Y-98262086D01*
X146825629Y-97956951D01*
X146818236Y-97951898D01*
X146816333Y-97945501D01*
X146816333Y-97212962D01*
X146819760Y-97204689D01*
X146823737Y-97202079D01*
X148321153Y-96611468D01*
X148330107Y-96611620D01*
G37*
%TD.AperFunction*%
%TD*%
%TA.AperFunction,Conductor*%
%TO.N,GPIO16*%
G36*
X148330107Y-83911620D02*
G01*
X148336330Y-83918059D01*
X148336919Y-83920056D01*
X148500540Y-84737704D01*
X148500540Y-84742296D01*
X148336490Y-85562086D01*
X148331506Y-85569526D01*
X148322721Y-85571262D01*
X148279012Y-85562086D01*
X146825629Y-85256951D01*
X146818236Y-85251898D01*
X146816333Y-85245501D01*
X146816333Y-84512962D01*
X146819760Y-84504689D01*
X146823737Y-84502079D01*
X148321153Y-83911468D01*
X148330107Y-83911620D01*
G37*
%TD.AperFunction*%
%TD*%
%TA.AperFunction,Conductor*%
%TO.N,Net-(D5-A)*%
G36*
X155551786Y-43676654D02*
G01*
X155553846Y-43678864D01*
X156472434Y-44962797D01*
X156474461Y-44971520D01*
X156474108Y-44973026D01*
X156233080Y-45761218D01*
X156172890Y-45958051D01*
X156172532Y-45959221D01*
X156166835Y-45966131D01*
X156161343Y-45967500D01*
X154679628Y-45967500D01*
X154671355Y-45964073D01*
X154668147Y-45958051D01*
X154474152Y-44968578D01*
X154475923Y-44959800D01*
X154476615Y-44958872D01*
X155535314Y-43678216D01*
X155543226Y-43674024D01*
X155551786Y-43676654D01*
G37*
%TD.AperFunction*%
%TD*%
%TA.AperFunction,Conductor*%
%TO.N,GPIO9*%
G36*
X118163163Y-94296148D02*
G01*
X118167062Y-94300879D01*
X118498700Y-95034909D01*
X118498984Y-95043859D01*
X118498488Y-95044988D01*
X118136094Y-95764727D01*
X118129313Y-95770575D01*
X118121530Y-95770418D01*
X116810228Y-95277849D01*
X116803688Y-95271732D01*
X116802642Y-95266896D01*
X116802642Y-94534871D01*
X116806069Y-94526598D01*
X116812372Y-94523338D01*
X118154432Y-94294163D01*
X118163163Y-94296148D01*
G37*
%TD.AperFunction*%
%TD*%
%TA.AperFunction,Conductor*%
%TO.N,Net-(D10-A)*%
G36*
X161261492Y-78776751D02*
G01*
X161263315Y-78777745D01*
X161998759Y-79267995D01*
X162002004Y-79271240D01*
X162492254Y-80006684D01*
X162493992Y-80015469D01*
X162489009Y-80022909D01*
X162487186Y-80023903D01*
X160923518Y-80704161D01*
X160914565Y-80704319D01*
X160910578Y-80701705D01*
X160568294Y-80359421D01*
X160564867Y-80351148D01*
X160565838Y-80346481D01*
X161246098Y-78782811D01*
X161252539Y-78776593D01*
X161261492Y-78776751D01*
G37*
%TD.AperFunction*%
%TD*%
%TA.AperFunction,Conductor*%
%TO.N,Net-(SW1-A)*%
G36*
X95507460Y-77460290D02*
G01*
X96275030Y-78095865D01*
X96279217Y-78103781D01*
X96278792Y-78108181D01*
X96002472Y-79046717D01*
X95996848Y-79053686D01*
X95991248Y-79055113D01*
X95008752Y-79055113D01*
X95000479Y-79051686D01*
X94997528Y-79046717D01*
X94721207Y-78108179D01*
X94722158Y-78099277D01*
X94724965Y-78095869D01*
X95492539Y-77460290D01*
X95501096Y-77457654D01*
X95507460Y-77460290D01*
G37*
%TD.AperFunction*%
%TD*%
%TA.AperFunction,Conductor*%
%TO.N,GPIO7*%
G36*
X143048746Y-99742643D02*
G01*
X143055821Y-99748132D01*
X143057358Y-99753928D01*
X143057358Y-100486071D01*
X143053931Y-100494344D01*
X143048746Y-100497356D01*
X141706295Y-100864720D01*
X141697411Y-100863598D01*
X141692545Y-100858252D01*
X141361176Y-100124817D01*
X141360892Y-100115867D01*
X141361176Y-100115183D01*
X141524393Y-99753928D01*
X141692545Y-99381746D01*
X141699074Y-99375618D01*
X141706295Y-99375279D01*
X143048746Y-99742643D01*
G37*
%TD.AperFunction*%
%TD*%
%TA.AperFunction,Conductor*%
%TO.N,Net-(D2-A)*%
G36*
X103621149Y-65145564D02*
G01*
X104652157Y-66131544D01*
X104655768Y-66139739D01*
X104652527Y-66148086D01*
X104652157Y-66148456D01*
X103621149Y-67134435D01*
X103612802Y-67137676D01*
X103608054Y-67136552D01*
X102566692Y-66643170D01*
X102560682Y-66636531D01*
X102560001Y-66632597D01*
X102560001Y-65647402D01*
X102563428Y-65639129D01*
X102566688Y-65636831D01*
X103608055Y-65143446D01*
X103616997Y-65143001D01*
X103621149Y-65145564D01*
G37*
%TD.AperFunction*%
%TD*%
%TA.AperFunction,Conductor*%
%TO.N,GPIO7*%
G36*
X148330107Y-99151620D02*
G01*
X148336330Y-99158059D01*
X148336919Y-99160056D01*
X148500540Y-99977704D01*
X148500540Y-99982296D01*
X148336490Y-100802086D01*
X148331506Y-100809526D01*
X148322721Y-100811262D01*
X148279012Y-100802086D01*
X146825629Y-100496951D01*
X146818236Y-100491898D01*
X146816333Y-100485501D01*
X146816333Y-99752962D01*
X146819760Y-99744689D01*
X146823737Y-99742079D01*
X148321153Y-99151468D01*
X148330107Y-99151620D01*
G37*
%TD.AperFunction*%
%TD*%
%TA.AperFunction,Conductor*%
%TO.N,GND*%
G36*
X143048746Y-56562643D02*
G01*
X143055821Y-56568132D01*
X143057358Y-56573928D01*
X143057358Y-57306071D01*
X143053931Y-57314344D01*
X143048746Y-57317356D01*
X141706295Y-57684720D01*
X141697411Y-57683598D01*
X141692545Y-57678252D01*
X141361176Y-56944817D01*
X141360892Y-56935867D01*
X141361176Y-56935183D01*
X141524393Y-56573928D01*
X141692545Y-56201746D01*
X141699074Y-56195618D01*
X141706295Y-56195279D01*
X143048746Y-56562643D01*
G37*
%TD.AperFunction*%
%TD*%
%TA.AperFunction,Conductor*%
%TO.N,GPIO25*%
G36*
X110678558Y-76210851D02*
G01*
X112175880Y-76742236D01*
X112182531Y-76748232D01*
X112183667Y-76753262D01*
X112183667Y-77485860D01*
X112180240Y-77494133D01*
X112174799Y-77497212D01*
X110677725Y-77870698D01*
X110668868Y-77869376D01*
X110663541Y-77862178D01*
X110663425Y-77861667D01*
X110499459Y-77042293D01*
X110499459Y-77037704D01*
X110663176Y-76219580D01*
X110668159Y-76212142D01*
X110676944Y-76210405D01*
X110678558Y-76210851D01*
G37*
%TD.AperFunction*%
%TD*%
%TA.AperFunction,Conductor*%
%TO.N,GPIO26*%
G36*
X110678558Y-78750851D02*
G01*
X112175880Y-79282236D01*
X112182531Y-79288232D01*
X112183667Y-79293262D01*
X112183667Y-80025860D01*
X112180240Y-80034133D01*
X112174799Y-80037212D01*
X110677725Y-80410698D01*
X110668868Y-80409376D01*
X110663541Y-80402178D01*
X110663425Y-80401667D01*
X110499459Y-79582293D01*
X110499459Y-79577704D01*
X110663176Y-78759580D01*
X110668159Y-78752142D01*
X110676944Y-78750405D01*
X110678558Y-78750851D01*
G37*
%TD.AperFunction*%
%TD*%
%TA.AperFunction,Conductor*%
%TO.N,GPIO14*%
G36*
X118163163Y-84136148D02*
G01*
X118167062Y-84140879D01*
X118498700Y-84874909D01*
X118498984Y-84883859D01*
X118498488Y-84884988D01*
X118136094Y-85604727D01*
X118129313Y-85610575D01*
X118121530Y-85610418D01*
X116810228Y-85117849D01*
X116803688Y-85111732D01*
X116802642Y-85106896D01*
X116802642Y-84374871D01*
X116806069Y-84366598D01*
X116812372Y-84363338D01*
X118154432Y-84134163D01*
X118163163Y-84136148D01*
G37*
%TD.AperFunction*%
%TD*%
%TA.AperFunction,Conductor*%
%TO.N,GPIO26*%
G36*
X119574859Y-78553269D02*
G01*
X119578128Y-78555572D01*
X119744937Y-78722381D01*
X119748364Y-78730654D01*
X119747991Y-78733584D01*
X119438000Y-79932055D01*
X119432611Y-79939206D01*
X119424923Y-79940693D01*
X118505663Y-79801670D01*
X118497996Y-79797045D01*
X118496703Y-79794811D01*
X118175472Y-79063437D01*
X118175283Y-79054485D01*
X118181480Y-79048021D01*
X118182234Y-79047720D01*
X119565916Y-78552828D01*
X119574859Y-78553269D01*
G37*
%TD.AperFunction*%
%TD*%
%TA.AperFunction,Conductor*%
%TO.N,GND*%
G36*
X143048746Y-71802643D02*
G01*
X143055821Y-71808132D01*
X143057358Y-71813928D01*
X143057358Y-72546071D01*
X143053931Y-72554344D01*
X143048746Y-72557356D01*
X141706295Y-72924720D01*
X141697411Y-72923598D01*
X141692545Y-72918252D01*
X141361176Y-72184817D01*
X141360892Y-72175867D01*
X141361176Y-72175183D01*
X141524393Y-71813928D01*
X141692545Y-71441746D01*
X141699074Y-71435618D01*
X141706295Y-71435279D01*
X143048746Y-71802643D01*
G37*
%TD.AperFunction*%
%TD*%
%TA.AperFunction,Conductor*%
%TO.N,+5V*%
G36*
X110677917Y-101609628D02*
G01*
X112175044Y-102017649D01*
X112182124Y-102023130D01*
X112183667Y-102028937D01*
X112183667Y-103010092D01*
X112180240Y-103018365D01*
X112173896Y-103021632D01*
X110677005Y-103271798D01*
X110668280Y-103269782D01*
X110663603Y-103262554D01*
X110499459Y-102442293D01*
X110499459Y-102437704D01*
X110581259Y-102028937D01*
X110663368Y-101618619D01*
X110668352Y-101611180D01*
X110677137Y-101609443D01*
X110677917Y-101609628D01*
G37*
%TD.AperFunction*%
%TD*%
%TA.AperFunction,Conductor*%
%TO.N,GPIO27*%
G36*
X118163163Y-81596148D02*
G01*
X118167062Y-81600879D01*
X118498700Y-82334909D01*
X118498984Y-82343859D01*
X118498488Y-82344988D01*
X118136094Y-83064727D01*
X118129313Y-83070575D01*
X118121530Y-83070418D01*
X116810228Y-82577849D01*
X116803688Y-82571732D01*
X116802642Y-82566896D01*
X116802642Y-81834871D01*
X116806069Y-81826598D01*
X116812372Y-81823338D01*
X118154432Y-81594163D01*
X118163163Y-81596148D01*
G37*
%TD.AperFunction*%
%TD*%
%TA.AperFunction,Conductor*%
%TO.N,GPIO36*%
G36*
X118163163Y-61276148D02*
G01*
X118167062Y-61280879D01*
X118498700Y-62014909D01*
X118498984Y-62023859D01*
X118498488Y-62024988D01*
X118136094Y-62744727D01*
X118129313Y-62750575D01*
X118121530Y-62750418D01*
X116810228Y-62257849D01*
X116803688Y-62251732D01*
X116802642Y-62246896D01*
X116802642Y-61514871D01*
X116806069Y-61506598D01*
X116812372Y-61503338D01*
X118154432Y-61274163D01*
X118163163Y-61276148D01*
G37*
%TD.AperFunction*%
%TD*%
%TA.AperFunction,Conductor*%
%TO.N,GPIO13*%
G36*
X118163163Y-91756148D02*
G01*
X118167062Y-91760879D01*
X118498700Y-92494909D01*
X118498984Y-92503859D01*
X118498488Y-92504988D01*
X118136094Y-93224727D01*
X118129313Y-93230575D01*
X118121530Y-93230418D01*
X116810228Y-92737849D01*
X116803688Y-92731732D01*
X116802642Y-92726896D01*
X116802642Y-91994871D01*
X116806069Y-91986598D01*
X116812372Y-91983338D01*
X118154432Y-91754163D01*
X118163163Y-91756148D01*
G37*
%TD.AperFunction*%
%TD*%
%TA.AperFunction,Conductor*%
%TO.N,GPIO5*%
G36*
X148330107Y-78831620D02*
G01*
X148336330Y-78838059D01*
X148336919Y-78840056D01*
X148500540Y-79657704D01*
X148500540Y-79662296D01*
X148336490Y-80482086D01*
X148331506Y-80489526D01*
X148322721Y-80491262D01*
X148279012Y-80482086D01*
X146825629Y-80176951D01*
X146818236Y-80171898D01*
X146816333Y-80165501D01*
X146816333Y-79432962D01*
X146819760Y-79424689D01*
X146823737Y-79422079D01*
X148321153Y-78831468D01*
X148330107Y-78831620D01*
G37*
%TD.AperFunction*%
%TD*%
%TA.AperFunction,Conductor*%
%TO.N,GPIO26*%
G36*
X118163163Y-79056148D02*
G01*
X118167062Y-79060879D01*
X118498700Y-79794909D01*
X118498984Y-79803859D01*
X118498488Y-79804988D01*
X118136094Y-80524727D01*
X118129313Y-80530575D01*
X118121530Y-80530418D01*
X116810228Y-80037849D01*
X116803688Y-80031732D01*
X116802642Y-80026896D01*
X116802642Y-79294871D01*
X116806069Y-79286598D01*
X116812372Y-79283338D01*
X118154432Y-79054163D01*
X118163163Y-79056148D01*
G37*
%TD.AperFunction*%
%TD*%
%TA.AperFunction,Conductor*%
%TO.N,GPIO11*%
G36*
X110678558Y-99070851D02*
G01*
X112175880Y-99602236D01*
X112182531Y-99608232D01*
X112183667Y-99613262D01*
X112183667Y-100345860D01*
X112180240Y-100354133D01*
X112174799Y-100357212D01*
X110677725Y-100730698D01*
X110668868Y-100729376D01*
X110663541Y-100722178D01*
X110663425Y-100721667D01*
X110499459Y-99902293D01*
X110499459Y-99897704D01*
X110663176Y-99079580D01*
X110668159Y-99072142D01*
X110676944Y-99070405D01*
X110678558Y-99070851D01*
G37*
%TD.AperFunction*%
%TD*%
%TA.AperFunction,Conductor*%
%TO.N,GPIO34*%
G36*
X118163163Y-66356148D02*
G01*
X118167062Y-66360879D01*
X118498700Y-67094909D01*
X118498984Y-67103859D01*
X118498488Y-67104988D01*
X118136094Y-67824727D01*
X118129313Y-67830575D01*
X118121530Y-67830418D01*
X116810228Y-67337849D01*
X116803688Y-67331732D01*
X116802642Y-67326896D01*
X116802642Y-66594871D01*
X116806069Y-66586598D01*
X116812372Y-66583338D01*
X118154432Y-66354163D01*
X118163163Y-66356148D01*
G37*
%TD.AperFunction*%
%TD*%
%TA.AperFunction,Conductor*%
%TO.N,EN*%
G36*
X110678558Y-58430851D02*
G01*
X112175880Y-58962236D01*
X112182531Y-58968232D01*
X112183667Y-58973262D01*
X112183667Y-59705860D01*
X112180240Y-59714133D01*
X112174799Y-59717212D01*
X110677725Y-60090698D01*
X110668868Y-60089376D01*
X110663541Y-60082178D01*
X110663425Y-60081667D01*
X110499459Y-59262293D01*
X110499459Y-59257704D01*
X110663176Y-58439580D01*
X110668159Y-58432142D01*
X110676944Y-58430405D01*
X110678558Y-58430851D01*
G37*
%TD.AperFunction*%
%TD*%
%TA.AperFunction,Conductor*%
%TO.N,GPIO19*%
G36*
X148330107Y-73751620D02*
G01*
X148336330Y-73758059D01*
X148336919Y-73760056D01*
X148500540Y-74577704D01*
X148500540Y-74582296D01*
X148336490Y-75402086D01*
X148331506Y-75409526D01*
X148322721Y-75411262D01*
X148279012Y-75402086D01*
X146825629Y-75096951D01*
X146818236Y-75091898D01*
X146816333Y-75085501D01*
X146816333Y-74352962D01*
X146819760Y-74344689D01*
X146823737Y-74342079D01*
X148321153Y-73751468D01*
X148330107Y-73751620D01*
G37*
%TD.AperFunction*%
%TD*%
%TA.AperFunction,Conductor*%
%TO.N,POWER_SEL*%
G36*
X165588086Y-66757472D02*
G01*
X165588456Y-66757842D01*
X166575956Y-67790440D01*
X166579197Y-67798787D01*
X166579042Y-67800440D01*
X166406623Y-68840213D01*
X166401889Y-68847814D01*
X166395081Y-68849999D01*
X164764919Y-68849999D01*
X164756646Y-68846572D01*
X164753377Y-68840213D01*
X164580957Y-67800440D01*
X164582984Y-67791718D01*
X164584043Y-67790440D01*
X165571544Y-66757842D01*
X165579739Y-66754231D01*
X165588086Y-66757472D01*
G37*
%TD.AperFunction*%
%TD*%
%TA.AperFunction,Conductor*%
%TO.N,GPIO6*%
G36*
X143048746Y-102282643D02*
G01*
X143055821Y-102288132D01*
X143057358Y-102293928D01*
X143057358Y-103026071D01*
X143053931Y-103034344D01*
X143048746Y-103037356D01*
X141706295Y-103404720D01*
X141697411Y-103403598D01*
X141692545Y-103398252D01*
X141361176Y-102664817D01*
X141360892Y-102655867D01*
X141361176Y-102655183D01*
X141524393Y-102293928D01*
X141692545Y-101921746D01*
X141699074Y-101915618D01*
X141706295Y-101915279D01*
X143048746Y-102282643D01*
G37*
%TD.AperFunction*%
%TD*%
%TA.AperFunction,Conductor*%
%TO.N,GPIO8*%
G36*
X143048746Y-97202643D02*
G01*
X143055821Y-97208132D01*
X143057358Y-97213928D01*
X143057358Y-97946071D01*
X143053931Y-97954344D01*
X143048746Y-97957356D01*
X141706295Y-98324720D01*
X141697411Y-98323598D01*
X141692545Y-98318252D01*
X141361176Y-97584817D01*
X141360892Y-97575867D01*
X141361176Y-97575183D01*
X141524393Y-97213928D01*
X141692545Y-96841746D01*
X141699074Y-96835618D01*
X141706295Y-96835279D01*
X143048746Y-97202643D01*
G37*
%TD.AperFunction*%
%TD*%
%TA.AperFunction,Conductor*%
%TO.N,GPIO15*%
G36*
X148330107Y-94071620D02*
G01*
X148336330Y-94078059D01*
X148336919Y-94080056D01*
X148500540Y-94897704D01*
X148500540Y-94902296D01*
X148336490Y-95722086D01*
X148331506Y-95729526D01*
X148322721Y-95731262D01*
X148279012Y-95722086D01*
X146825629Y-95416951D01*
X146818236Y-95411898D01*
X146816333Y-95405501D01*
X146816333Y-94672962D01*
X146819760Y-94664689D01*
X146823737Y-94662079D01*
X148321153Y-94071468D01*
X148330107Y-94071620D01*
G37*
%TD.AperFunction*%
%TD*%
%TA.AperFunction,Conductor*%
%TO.N,GPIO36*%
G36*
X110678558Y-60970851D02*
G01*
X112175880Y-61502236D01*
X112182531Y-61508232D01*
X112183667Y-61513262D01*
X112183667Y-62245860D01*
X112180240Y-62254133D01*
X112174799Y-62257212D01*
X110677725Y-62630698D01*
X110668868Y-62629376D01*
X110663541Y-62622178D01*
X110663425Y-62621667D01*
X110499459Y-61802293D01*
X110499459Y-61797704D01*
X110663176Y-60979580D01*
X110668159Y-60972142D01*
X110676944Y-60970405D01*
X110678558Y-60970851D01*
G37*
%TD.AperFunction*%
%TD*%
%TA.AperFunction,Conductor*%
%TO.N,GPIO14*%
G36*
X110678558Y-83830851D02*
G01*
X112175880Y-84362236D01*
X112182531Y-84368232D01*
X112183667Y-84373262D01*
X112183667Y-85105860D01*
X112180240Y-85114133D01*
X112174799Y-85117212D01*
X110677725Y-85490698D01*
X110668868Y-85489376D01*
X110663541Y-85482178D01*
X110663425Y-85481667D01*
X110499459Y-84662293D01*
X110499459Y-84657704D01*
X110663176Y-83839580D01*
X110668159Y-83832142D01*
X110676944Y-83830405D01*
X110678558Y-83830851D01*
G37*
%TD.AperFunction*%
%TD*%
%TA.AperFunction,Conductor*%
%TO.N,GPIO4*%
G36*
X148330107Y-86451620D02*
G01*
X148336330Y-86458059D01*
X148336919Y-86460056D01*
X148500540Y-87277704D01*
X148500540Y-87282296D01*
X148336490Y-88102086D01*
X148331506Y-88109526D01*
X148322721Y-88111262D01*
X148279012Y-88102086D01*
X146825629Y-87796951D01*
X146818236Y-87791898D01*
X146816333Y-87785501D01*
X146816333Y-87052962D01*
X146819760Y-87044689D01*
X146823737Y-87042079D01*
X148321153Y-86451468D01*
X148330107Y-86451620D01*
G37*
%TD.AperFunction*%
%TD*%
%TA.AperFunction,Conductor*%
%TO.N,+5V*%
G36*
X129531347Y-72348071D02*
G01*
X129536315Y-72355521D01*
X129536413Y-72356093D01*
X129703012Y-73490944D01*
X129700823Y-73499627D01*
X129699709Y-73500916D01*
X129006462Y-74194163D01*
X128998189Y-74197590D01*
X128989916Y-74194163D01*
X128988712Y-74192752D01*
X128091940Y-72954283D01*
X128089864Y-72945572D01*
X128094555Y-72937944D01*
X128094855Y-72937735D01*
X128747347Y-72500596D01*
X128751586Y-72498839D01*
X129522566Y-72346314D01*
X129531347Y-72348071D01*
G37*
%TD.AperFunction*%
%TD*%
%TA.AperFunction,Conductor*%
%TO.N,Net-(D2-A)*%
G36*
X154814235Y-70093405D02*
G01*
X155417020Y-70995191D01*
X155418769Y-71003974D01*
X155417866Y-71006702D01*
X154963017Y-71966760D01*
X154956378Y-71972770D01*
X154948268Y-71972680D01*
X153050970Y-71247660D01*
X153044465Y-71241506D01*
X153044217Y-71232555D01*
X153046871Y-71228460D01*
X153739598Y-70535733D01*
X153743332Y-70533224D01*
X154799976Y-70089121D01*
X154808930Y-70089076D01*
X154814235Y-70093405D01*
G37*
%TD.AperFunction*%
%TD*%
%TA.AperFunction,Conductor*%
%TO.N,GPIO27*%
G36*
X110678558Y-81290851D02*
G01*
X112175880Y-81822236D01*
X112182531Y-81828232D01*
X112183667Y-81833262D01*
X112183667Y-82565860D01*
X112180240Y-82574133D01*
X112174799Y-82577212D01*
X110677725Y-82950698D01*
X110668868Y-82949376D01*
X110663541Y-82942178D01*
X110663425Y-82941667D01*
X110499459Y-82122293D01*
X110499459Y-82117704D01*
X110663176Y-81299580D01*
X110668159Y-81292142D01*
X110676944Y-81290405D01*
X110678558Y-81290851D01*
G37*
%TD.AperFunction*%
%TD*%
%TA.AperFunction,Conductor*%
%TO.N,GPIO13*%
G36*
X110678558Y-91450851D02*
G01*
X112175880Y-91982236D01*
X112182531Y-91988232D01*
X112183667Y-91993262D01*
X112183667Y-92725860D01*
X112180240Y-92734133D01*
X112174799Y-92737212D01*
X110677725Y-93110698D01*
X110668868Y-93109376D01*
X110663541Y-93102178D01*
X110663425Y-93101667D01*
X110499459Y-92282293D01*
X110499459Y-92277704D01*
X110663176Y-91459580D01*
X110668159Y-91452142D01*
X110676944Y-91450405D01*
X110678558Y-91450851D01*
G37*
%TD.AperFunction*%
%TD*%
%TA.AperFunction,Conductor*%
%TO.N,POWER_SEL*%
G36*
X166403354Y-55403428D02*
G01*
X166406623Y-55409787D01*
X166579042Y-56449558D01*
X166577015Y-56458280D01*
X166575956Y-56459558D01*
X165588456Y-57492157D01*
X165580261Y-57495768D01*
X165571914Y-57492527D01*
X165571544Y-57492157D01*
X164584043Y-56459558D01*
X164580802Y-56451211D01*
X164580957Y-56449558D01*
X164753377Y-55409787D01*
X164758111Y-55402186D01*
X164764919Y-55400001D01*
X166395081Y-55400001D01*
X166403354Y-55403428D01*
G37*
%TD.AperFunction*%
%TD*%
%TA.AperFunction,Conductor*%
%TO.N,GPIO2*%
G36*
X143048746Y-92122643D02*
G01*
X143055821Y-92128132D01*
X143057358Y-92133928D01*
X143057358Y-92866071D01*
X143053931Y-92874344D01*
X143048746Y-92877356D01*
X141706295Y-93244720D01*
X141697411Y-93243598D01*
X141692545Y-93238252D01*
X141361176Y-92504817D01*
X141360892Y-92495867D01*
X141361176Y-92495183D01*
X141524393Y-92133928D01*
X141692545Y-91761746D01*
X141699074Y-91755618D01*
X141706295Y-91755279D01*
X143048746Y-92122643D01*
G37*
%TD.AperFunction*%
%TD*%
%TA.AperFunction,Conductor*%
%TO.N,+5V*%
G36*
X128591247Y-71719400D02*
G01*
X128596222Y-71726833D01*
X128750540Y-72497703D01*
X128750540Y-72502297D01*
X128596222Y-73273166D01*
X128591238Y-73280605D01*
X128582464Y-73282343D01*
X127174786Y-73001875D01*
X127167342Y-72996898D01*
X127165372Y-72990401D01*
X127165372Y-72009598D01*
X127168799Y-72001325D01*
X127174784Y-71998124D01*
X128582464Y-71717656D01*
X128591247Y-71719400D01*
G37*
%TD.AperFunction*%
%TD*%
%TA.AperFunction,Conductor*%
%TO.N,GPIO27*%
G36*
X119655155Y-81173247D02*
G01*
X119657772Y-81175216D01*
X119824490Y-81341934D01*
X119827917Y-81350207D01*
X119827276Y-81354027D01*
X119438559Y-82479391D01*
X119432619Y-82486092D01*
X119425673Y-82487128D01*
X118505893Y-82341750D01*
X118498257Y-82337073D01*
X118496838Y-82334491D01*
X118207068Y-81600772D01*
X118207216Y-81591818D01*
X118213652Y-81585592D01*
X118214701Y-81585233D01*
X119646258Y-81172247D01*
X119655155Y-81173247D01*
G37*
%TD.AperFunction*%
%TD*%
%TA.AperFunction,Conductor*%
%TO.N,POWER_SEL*%
G36*
X166403354Y-68903428D02*
G01*
X166406623Y-68909787D01*
X166579042Y-69949558D01*
X166577015Y-69958280D01*
X166575956Y-69959558D01*
X165588456Y-70992157D01*
X165580261Y-70995768D01*
X165571914Y-70992527D01*
X165571544Y-70992157D01*
X164584043Y-69959558D01*
X164580802Y-69951211D01*
X164580957Y-69949558D01*
X164753377Y-68909787D01*
X164758111Y-68902186D01*
X164764919Y-68900001D01*
X166395081Y-68900001D01*
X166403354Y-68903428D01*
G37*
%TD.AperFunction*%
%TD*%
M02*
