%TF.GenerationSoftware,KiCad,Pcbnew,9.0.5*%
%TF.CreationDate,2025-11-06T15:37:30+07:00*%
%TF.ProjectId,pcb_esp32_jetbot_kicad,7063625f-6573-4703-9332-5f6a6574626f,rev?*%
%TF.SameCoordinates,Original*%
%TF.FileFunction,Soldermask,Bot*%
%TF.FilePolarity,Negative*%
%FSLAX46Y46*%
G04 Gerber Fmt 4.6, Leading zero omitted, Abs format (unit mm)*
G04 Created by KiCad (PCBNEW 9.0.5) date 2025-11-06 15:37:30*
%MOMM*%
%LPD*%
G01*
G04 APERTURE LIST*
G04 Aperture macros list*
%AMRoundRect*
0 Rectangle with rounded corners*
0 $1 Rounding radius*
0 $2 $3 $4 $5 $6 $7 $8 $9 X,Y pos of 4 corners*
0 Add a 4 corners polygon primitive as box body*
4,1,4,$2,$3,$4,$5,$6,$7,$8,$9,$2,$3,0*
0 Add four circle primitives for the rounded corners*
1,1,$1+$1,$2,$3*
1,1,$1+$1,$4,$5*
1,1,$1+$1,$6,$7*
1,1,$1+$1,$8,$9*
0 Add four rect primitives between the rounded corners*
20,1,$1+$1,$2,$3,$4,$5,0*
20,1,$1+$1,$4,$5,$6,$7,0*
20,1,$1+$1,$6,$7,$8,$9,0*
20,1,$1+$1,$8,$9,$2,$3,0*%
G04 Aperture macros list end*
%ADD10R,1.800000X1.800000*%
%ADD11C,1.800000*%
%ADD12RoundRect,0.249999X0.850001X0.850001X-0.850001X0.850001X-0.850001X-0.850001X0.850001X-0.850001X0*%
%ADD13C,2.200000*%
%ADD14RoundRect,0.250000X0.550000X-0.550000X0.550000X0.550000X-0.550000X0.550000X-0.550000X-0.550000X0*%
%ADD15C,1.600000*%
%ADD16RoundRect,0.250000X1.050000X1.050000X-1.050000X1.050000X-1.050000X-1.050000X1.050000X-1.050000X0*%
%ADD17C,2.600000*%
%ADD18C,3.000000*%
%ADD19R,1.700000X1.700000*%
%ADD20C,1.700000*%
%ADD21RoundRect,0.250000X-0.600000X-0.750000X0.600000X-0.750000X0.600000X0.750000X-0.600000X0.750000X0*%
%ADD22O,1.700000X2.000000*%
%ADD23R,1.905000X2.000000*%
%ADD24O,1.905000X2.000000*%
%ADD25R,3.500000X3.500000*%
%ADD26RoundRect,0.750000X1.000000X-0.750000X1.000000X0.750000X-1.000000X0.750000X-1.000000X-0.750000X0*%
%ADD27RoundRect,0.875000X0.875000X-0.875000X0.875000X0.875000X-0.875000X0.875000X-0.875000X-0.875000X0*%
%ADD28O,2.200000X3.500000*%
%ADD29R,1.500000X2.500000*%
%ADD30O,1.500000X2.500000*%
%ADD31O,1.900000X1.524000*%
G04 APERTURE END LIST*
D10*
%TO.C,D10*%
X162000000Y-76730000D03*
D11*
X162000000Y-79270000D03*
%TD*%
D10*
%TO.C,D1*%
X155000000Y-76730000D03*
D11*
X155000000Y-79270000D03*
%TD*%
D12*
%TO.C,D5*%
X165580000Y-57500000D03*
D13*
X155420000Y-57500000D03*
%TD*%
D14*
%TO.C,CP1*%
X103000000Y-77500000D03*
D15*
X103000000Y-75500000D03*
%TD*%
D16*
%TO.C,TerminalBlock-2*%
X155545000Y-43667500D03*
D17*
X150465000Y-43667500D03*
%TD*%
D18*
%TO.C,REF\u002A\u002A*%
X90500000Y-105000000D03*
%TD*%
%TO.C,REF\u002A\u002A*%
X167500000Y-105500000D03*
%TD*%
D12*
%TO.C,D9*%
X104580000Y-62000000D03*
D13*
X94420000Y-62000000D03*
%TD*%
D19*
%TO.C,J3*%
X148500000Y-56800000D03*
D20*
X148500000Y-59340000D03*
X148500000Y-61880000D03*
X148500000Y-64420000D03*
X148500000Y-66960000D03*
X148500000Y-69500000D03*
X148500000Y-72040000D03*
X148500000Y-74580000D03*
X148500000Y-77120000D03*
X148500000Y-79660000D03*
X148500000Y-82200000D03*
X148500000Y-84740000D03*
X148500000Y-87280000D03*
X148500000Y-89820000D03*
X148500000Y-92360000D03*
X148500000Y-94900000D03*
X148500000Y-97440000D03*
X148500000Y-99980000D03*
X148500000Y-102520000D03*
%TD*%
D18*
%TO.C,REF\u002A\u002A*%
X90500000Y-38500000D03*
%TD*%
D15*
%TO.C,R1*%
X133500000Y-85810000D03*
X133500000Y-78190000D03*
%TD*%
D21*
%TO.C,Connector_JST1*%
X157500000Y-97340000D03*
D22*
X160000000Y-97340000D03*
%TD*%
D15*
%TO.C,C2*%
X128750000Y-72500000D03*
X131250000Y-72500000D03*
%TD*%
D14*
%TO.C,CP3*%
X95500000Y-77455113D03*
D15*
X95500000Y-75455113D03*
%TD*%
D18*
%TO.C,REF\u002A\u002A*%
X167000000Y-38500000D03*
%TD*%
D23*
%TO.C,U3*%
X96500000Y-84500000D03*
D24*
X99040000Y-84500000D03*
X101580000Y-84500000D03*
%TD*%
D19*
%TO.C,J2*%
X110500000Y-56720000D03*
D20*
X110500000Y-59260000D03*
X110500000Y-61800000D03*
X110500000Y-64340000D03*
X110500000Y-66880000D03*
X110500000Y-69420000D03*
X110500000Y-71960000D03*
X110500000Y-74500000D03*
X110500000Y-77040000D03*
X110500000Y-79580000D03*
X110500000Y-82120000D03*
X110500000Y-84660000D03*
X110500000Y-87200000D03*
X110500000Y-89740000D03*
X110500000Y-92280000D03*
X110500000Y-94820000D03*
X110500000Y-97360000D03*
X110500000Y-99900000D03*
X110500000Y-102440000D03*
%TD*%
D10*
%TO.C,U1*%
X120650000Y-47420000D03*
D11*
X121920000Y-42340000D03*
X123190000Y-47420000D03*
X124460000Y-42340000D03*
X125730000Y-47420000D03*
X127000000Y-42340000D03*
X128270000Y-47420000D03*
X129540000Y-42340000D03*
X130810000Y-47420000D03*
X132080000Y-42340000D03*
X133350000Y-47420000D03*
X134620000Y-42340000D03*
X135890000Y-47420000D03*
X137160000Y-42340000D03*
X138430000Y-47420000D03*
%TD*%
D12*
%TO.C,D7*%
X104660000Y-66140000D03*
D13*
X94500000Y-66140000D03*
%TD*%
D16*
%TO.C,TerminalBlock-1*%
X108545000Y-44167500D03*
D17*
X103465000Y-44167500D03*
%TD*%
D25*
%TO.C,J4*%
X99000000Y-91000000D03*
D26*
X99000000Y-97000000D03*
D27*
X103700000Y-94000000D03*
%TD*%
D12*
%TO.C,D4*%
X165500000Y-62000000D03*
D13*
X155340000Y-62000000D03*
%TD*%
D12*
%TO.C,D8*%
X104580000Y-57500000D03*
D13*
X94420000Y-57500000D03*
%TD*%
D28*
%TO.C,SW1*%
X163600000Y-86500000D03*
X155400000Y-86500000D03*
D29*
X161500000Y-86500000D03*
D30*
X159500000Y-86500000D03*
X157500000Y-86500000D03*
%TD*%
D15*
%TO.C,R2*%
X126000000Y-86000000D03*
X126000000Y-78380000D03*
%TD*%
D31*
%TO.C,U2*%
X118500000Y-102660000D03*
X118500000Y-100120000D03*
X118500000Y-97580000D03*
X118500000Y-95040000D03*
X118500000Y-92500000D03*
X118500000Y-89960000D03*
X118500000Y-87420000D03*
X118500000Y-84880000D03*
X118500000Y-82340000D03*
X118500000Y-79800000D03*
X118500000Y-77260000D03*
X118500000Y-74720000D03*
X118500000Y-72180000D03*
X118500000Y-69640000D03*
X118500000Y-67100000D03*
X118500000Y-64560000D03*
X118500000Y-62020000D03*
X118500000Y-59480000D03*
X118500000Y-56940000D03*
X141360000Y-102660000D03*
X141360000Y-100120000D03*
X141360000Y-97580000D03*
X141360000Y-95040000D03*
X141360000Y-92500000D03*
X141360000Y-89960000D03*
X141360000Y-87420000D03*
X141360000Y-84880000D03*
X141360000Y-82340000D03*
X141360000Y-79800000D03*
X141360000Y-77260000D03*
X141360000Y-74720000D03*
X141360000Y-72180000D03*
X141360000Y-69640000D03*
X141360000Y-67100000D03*
X141360000Y-64560000D03*
X141360000Y-62020000D03*
X141360000Y-59480000D03*
X141360000Y-56940000D03*
%TD*%
D12*
%TO.C,D3*%
X165580000Y-66750000D03*
D13*
X155420000Y-66750000D03*
%TD*%
D12*
%TO.C,D2*%
X165580000Y-71000000D03*
D13*
X155420000Y-71000000D03*
%TD*%
D12*
%TO.C,D6*%
X104740000Y-70140000D03*
D13*
X94580000Y-70140000D03*
%TD*%
M02*
