M48
; DRILL file {KiCad 9.0.5} date 2025-11-06T15:37:34+0700
; FORMAT={-:-/ absolute / metric / decimal}
; #@! TF.CreationDate,2025-11-06T15:37:34+07:00
; #@! TF.GenerationSoftware,Kicad,Pcbnew,9.0.5
; #@! TF.FileFunction,Plated,1,2,PTH
FMAT,2
METRIC
; #@! TA.AperFunction,Plated,PTH,ViaDrill
T1C0.300
; #@! TA.AperFunction,Plated,PTH,ViaDrill
T2C0.400
; #@! TA.AperFunction,Plated,PTH,ComponentDrill
T3C0.800
; #@! TA.AperFunction,Plated,PTH,ComponentDrill
T4C0.900
; #@! TA.AperFunction,Plated,PTH,ComponentDrill
T5C1.000
; #@! TA.AperFunction,Plated,PTH,ComponentDrill
T6C1.100
; #@! TA.AperFunction,Plated,PTH,ComponentDrill
T7C1.300
; #@! TA.AperFunction,Plated,PTH,ComponentDrill
T8C1.500
%
G90
G05
T1
X115.5Y-45.5
X115.5Y-46.5
X116.5Y-49.5
X116.5Y-50.5
X117.5Y-49.5
T2
X113.5Y-40.5
X114.5Y-38.5
X124.0Y-55.5
X124.5Y-55.0
X125.0Y-54.5
X128.5Y-51.5
X129.5Y-51.5
X157.25Y-38.75
X158.0Y-39.5
X158.0Y-40.5
T3
X95.5Y-75.455
X95.5Y-77.455
X103.0Y-75.5
X103.0Y-77.5
X118.5Y-56.94
X118.5Y-59.48
X118.5Y-62.02
X118.5Y-64.56
X118.5Y-67.1
X118.5Y-69.64
X118.5Y-72.18
X118.5Y-74.72
X118.5Y-77.26
X118.5Y-79.8
X118.5Y-82.34
X118.5Y-84.88
X118.5Y-87.42
X118.5Y-89.96
X118.5Y-92.5
X118.5Y-95.04
X118.5Y-97.58
X118.5Y-100.12
X118.5Y-102.66
X126.0Y-78.38
X126.0Y-86.0
X128.75Y-72.5
X131.25Y-72.5
X133.5Y-78.19
X133.5Y-85.81
X141.36Y-56.94
X141.36Y-59.48
X141.36Y-62.02
X141.36Y-64.56
X141.36Y-67.1
X141.36Y-69.64
X141.36Y-72.18
X141.36Y-74.72
X141.36Y-77.26
X141.36Y-79.8
X141.36Y-82.34
X141.36Y-84.88
X141.36Y-87.42
X141.36Y-89.96
X141.36Y-92.5
X141.36Y-95.04
X141.36Y-97.58
X141.36Y-100.12
X141.36Y-102.66
X157.5Y-86.5
X159.5Y-86.5
X161.5Y-86.5
T4
X155.0Y-76.73
X155.0Y-79.27
X162.0Y-76.73
X162.0Y-79.27
T5
X110.5Y-56.72
X110.5Y-59.26
X110.5Y-61.8
X110.5Y-64.34
X110.5Y-66.88
X110.5Y-69.42
X110.5Y-71.96
X110.5Y-74.5
X110.5Y-77.04
X110.5Y-79.58
X110.5Y-82.12
X110.5Y-84.66
X110.5Y-87.2
X110.5Y-89.74
X110.5Y-92.28
X110.5Y-94.82
X110.5Y-97.36
X110.5Y-99.9
X110.5Y-102.44
X120.65Y-47.42
X121.92Y-42.34
X123.19Y-47.42
X124.46Y-42.34
X125.73Y-47.42
X127.0Y-42.34
X128.27Y-47.42
X129.54Y-42.34
X130.81Y-47.42
X132.08Y-42.34
X133.35Y-47.42
X134.62Y-42.34
X135.89Y-47.42
X137.16Y-42.34
X138.43Y-47.42
X148.5Y-56.8
X148.5Y-59.34
X148.5Y-61.88
X148.5Y-64.42
X148.5Y-66.96
X148.5Y-69.5
X148.5Y-72.04
X148.5Y-74.58
X148.5Y-77.12
X148.5Y-79.66
X148.5Y-82.2
X148.5Y-84.74
X148.5Y-87.28
X148.5Y-89.82
X148.5Y-92.36
X148.5Y-94.9
X148.5Y-97.44
X148.5Y-99.98
X148.5Y-102.52
X157.5Y-97.34
X160.0Y-97.34
T6
X94.42Y-57.5
X94.42Y-62.0
X94.5Y-66.14
X94.58Y-70.14
X96.5Y-84.5
X99.04Y-84.5
X101.58Y-84.5
X104.58Y-57.5
X104.58Y-62.0
X104.66Y-66.14
X104.74Y-70.14
X155.34Y-62.0
X155.42Y-57.5
X155.42Y-66.75
X155.42Y-71.0
X165.5Y-62.0
X165.58Y-57.5
X165.58Y-66.75
X165.58Y-71.0
T7
X103.465Y-44.167
X108.545Y-44.167
X150.465Y-43.667
X155.545Y-43.667
T8
X155.4Y-86.5
X163.6Y-86.5
T5
G00X98.0Y-91.0
M15
G01X100.0Y-91.0
M16
G05
G00X98.0Y-97.0
M15
G01X100.0Y-97.0
M16
G05
G00X103.7Y-95.0
M15
G01X103.7Y-93.0
M16
G05
M30
